<svg id="Layer_1" data-name="Layer 1" xmlns="http://www.w3.org/2000/svg" width="6.35in" height="3.59in" viewBox="0 0 457 258.68">
  <defs>
    <style>
      .cls-1 {
        fill: #6cb12c;
      }

      .cls-2 {
        fill: #0511a5;
      }
    </style>
  </defs>
  <g>
    <g>
      <path class="cls-1" d="M306.81,263A71,71,0,0,1,189.4,183.57l5.38,1.46a65.64,65.64,0,0,0,105.09,78h6.94Z" transform="translate(-21.53 -120.68)"/>
      <path class="cls-1" d="M319.88,261.55A68,68,0,0,1,314.2,271a70.35,70.35,0,0,1-14.54,14.9,96.06,96.06,0,0,1-13.81,8.44c-1.11.59-2.25,1.15-3.4,1.67a82.52,82.52,0,0,1-45.75,6.39,83.63,83.63,0,0,1-18.59-4.94,82,82,0,0,1-8.15-3.73c-19.08-10-33.9-27.57-41.31-47.77a78.7,78.7,0,0,1-2.51-45.76,86.8,86.8,0,0,1,10-24.64,85,85,0,0,1,7.08-10.09c1.37-1.68,2.8-3.32,4.3-4.89,1.07-1.13,3-2.37,3.72-3.7A68,68,0,0,1,204.5,140.5a62.57,62.57,0,0,1,27.82-14.75c14.47-3.38,30.08-2.74,44.8-1.84,4.41.27,8.53.32,12.8-.93a31.52,31.52,0,0,0,5.69-2.3c-2.49,8.9-4.3,17.91-8.72,26.11a65.23,65.23,0,0,1-4.8,7.6c-1.1,1.51-2.27,3-3.49,4.38a63.18,63.18,0,0,1-7.64,7.44c-15.29,12.59-35.31,16.4-54.68,15.82-2.68-.08-5.26-.27-7.71-.54-2-.22-3.95-.5-5.8-.82a98.44,98.44,0,0,1-13-3.14,55.08,55.08,0,0,1,22.51-23.36c2.64-1.39,5.47-2.77,8.49-4.11A137.76,137.76,0,0,1,236,144.41l16.29-5a91.07,91.07,0,0,0-11.91.54c-1.85.21-3.65.54-5.49.85-11.2,1.91-22.22,5.56-31.87,11.64a65.13,65.13,0,0,0-11.09,8.77,57.91,57.91,0,0,0-9.41,12.07,87.86,87.86,0,0,0-6.82,14.49,83.19,83.19,0,0,0-4.7,30.32A73.5,73.5,0,0,0,194.18,271c.91,1,1.84,1.89,2.79,2.8A80,80,0,0,0,241.34,295a82,82,0,0,0,78.54-33.44Z" transform="translate(-21.53 -120.68)"/>
      <path class="cls-1" d="M308.81,176l-3.92,3.78a58,58,0,0,0-20.77-18.44l3-4.48A63.53,63.53,0,0,1,308.81,176Z" transform="translate(-21.53 -120.68)"/>
      <path class="cls-2" d="M313.66,169.22a41.31,41.31,0,0,1,.77,8.52c-.15,2.69-2.09,4.86-4.13,6.45a33.75,33.75,0,0,1-7.82,4.33,60.7,60.7,0,0,1-14.65,3.7c-1.56.23-3.13.42-4.7.59h-.33a359.85,359.85,0,0,1-38,1.74c-5.84,0-11.69-.09-17.53-.3-5.65-.26-11.29-.56-16.94-.87,17,7,36.4,8,54.59,8.84q9.66.47,19.34.18c5.89-.17,11.77.08,17.66-.49a58.61,58.61,0,0,0,14.34-3.07,25.19,25.19,0,0,0,2.48-1,13.58,13.58,0,0,0,5.53-4.74,12.92,12.92,0,0,0,1-10.52,22.93,22.93,0,0,0-8-11.13,21,21,0,0,0-1.93-1.3C315.13,170,313.69,169.4,313.66,169.22Z" transform="translate(-21.53 -120.68)"/>
      <path class="cls-2" d="M323.34,197a43.06,43.06,0,0,1,.8,8.85c-.16,2.8-2.18,5.06-4.3,6.71a35.44,35.44,0,0,1-8.15,4.5A63.35,63.35,0,0,1,296.43,221c-1.63.24-3.26.44-4.89.62h-.34a376.82,376.82,0,0,1-39.61,1.81q-9.14,0-18.26-.32-8.82-.41-17.64-.9c17.74,7.26,37.91,8.28,56.85,9.19q10.06.48,20.15.19c6.13-.17,12.26.08,18.39-.51a60.93,60.93,0,0,0,14.92-3.2,24.37,24.37,0,0,0,2.58-1.1,14.11,14.11,0,0,0,5.76-4.93,13.33,13.33,0,0,0,1.07-10.93,23.92,23.92,0,0,0-8.34-11.57,20.6,20.6,0,0,0-2-1.35A11.44,11.44,0,0,1,323.34,197Z" transform="translate(-21.53 -120.68)"/>
      <path class="cls-2" d="M322.51,230.43a36.19,36.19,0,0,1,.66,7.34c-.13,2.32-1.8,4.19-3.56,5.56a29.29,29.29,0,0,1-6.75,3.73,52.45,52.45,0,0,1-12.64,3.19c-1.35.19-2.7.36-4.06.51h-.28a310.1,310.1,0,0,1-32.82,1.5q-7.56,0-15.13-.26c-4.88-.22-9.75-.48-14.62-.75,14.7,6,31.42,6.86,47.11,7.62q8.34.4,16.7.16c5.08-.14,10.16.07,15.24-.42A50.32,50.32,0,0,0,324.73,256a18.32,18.32,0,0,0,2.14-.91,11.7,11.7,0,0,0,4.78-4.09,11.06,11.06,0,0,0,.88-9.06,19.85,19.85,0,0,0-6.91-9.59,18.7,18.7,0,0,0-1.67-1.12A8.8,8.8,0,0,1,322.51,230.43Z" transform="translate(-21.53 -120.68)"/>
    </g>
    <path class="cls-1" d="M43.36,339.62,58,378.93H51.14L48,370.49H31.54l-3.16,8.45H21.53l14.66-39.31h7.17Zm-9.54,24.73H45.69l-5.92-15.94Z" transform="translate(-21.53 -120.68)"/>
    <path class="cls-1" d="M75.48,357.69H95.06v9.48a19.59,19.59,0,0,1-27.83,9.18,19.85,19.85,0,0,1-7.16-7.2,19.44,19.44,0,0,1-2.67-9.84v-.16a19.68,19.68,0,0,1,12-17.93,19.69,19.69,0,0,1,25.62,10.36h-7a13.49,13.49,0,0,0-22.68,1,13.34,13.34,0,0,0-.74,12,14.15,14.15,0,0,0,2.88,4.36,13.46,13.46,0,0,0,4.3,2.93,13,13,0,0,0,5.18,1,13.27,13.27,0,0,0,6.26-1.54A13.48,13.48,0,0,0,88,367.18v-3.35H75.48Z" transform="translate(-21.53 -120.68)"/>
    <path class="cls-1" d="M122.41,360.74l7.46,18.19h-7.22l-6.93-16.6H104.78v16.6H98.64V339.62h18a11.34,11.34,0,0,1,5.77,21.12Zm-5.8-4.54a5.22,5.22,0,0,0,5.24-5.2v0a5,5,0,0,0-1.53-3.69,5.07,5.07,0,0,0-3.71-1.51H104.76V356.2Z" transform="translate(-21.53 -120.68)"/>
    <path class="cls-1" d="M143.66,341.23a19.48,19.48,0,0,1,15.24,0,19.19,19.19,0,0,1,10.45,10.45,19.48,19.48,0,0,1,0,15.24,19.19,19.19,0,0,1-10.45,10.45,19.48,19.48,0,0,1-15.24,0,19.19,19.19,0,0,1-10.45-10.45,19.48,19.48,0,0,1,0-15.24,19.21,19.21,0,0,1,10.45-10.45Zm2.39,30.49a13.47,13.47,0,1,0-7.18-7.18,13.88,13.88,0,0,0,2.88,4.3A13.32,13.32,0,0,0,146.05,371.72Z" transform="translate(-21.53 -120.68)"/>
    <path class="cls-1" d="M201.83,362a7.29,7.29,0,0,0-5.11,1.65,6,6,0,0,0-1.82,4.65,5.64,5.64,0,0,0,1.93,4.58,8.09,8.09,0,0,0,5.43,1.63,8.92,8.92,0,0,0,7.78-4q2.76-4,2.76-11.16H218a26.35,26.35,0,0,1-2,10.81,15,15,0,0,1-5.8,6.84,16.94,16.94,0,0,1-9.14,2.35q-5.44,0-8.43-2.9t-3-8.18a10.77,10.77,0,0,1,2.62-7.6,11,11,0,0,1,7.34-3.27ZM214,379l-14.72-15.35A23.45,23.45,0,0,1,195,357.5a15.71,15.71,0,0,1-1.55-6.81q0-5.07,2.71-7.85t7.65-2.78c3.28,0,5.81.89,7.61,2.67s2.7,4.3,2.7,7.56v.53h-5.42v-.53a4.91,4.91,0,0,0-1.28-3.65,4.81,4.81,0,0,0-3.61-1.29,4.75,4.75,0,0,0-3.64,1.39,5.55,5.55,0,0,0-1.3,3.94,11.71,11.71,0,0,0,1.13,4.83,16.89,16.89,0,0,0,3.23,4.7L220.85,379Z" transform="translate(-21.53 -120.68)"/>
    <path class="cls-2" d="M264.23,345.76H243v10.39h21.22v6.14H243v16.65h-6.14V339.63h27.36v6.13Z" transform="translate(-21.53 -120.68)"/>
    <path class="cls-2" d="M274,378.94h-6.14V339.63H274Z" transform="translate(-21.53 -120.68)"/>
    <path class="cls-2" d="M283.67,351a4,4,0,0,0,.44,2.58,4.15,4.15,0,0,0,1.86,1.63,15.34,15.34,0,0,0,2.88,1c1.1.26,2.27.49,3.52.7s2.5.45,3.76.7a18.88,18.88,0,0,1,3.61,1.12,13,13,0,0,1,3.05,1.79,7.48,7.48,0,0,1,2.13,2.87,10.36,10.36,0,0,1,.8,4.22,9.54,9.54,0,0,1-1.89,5.7,13,13,0,0,1-5.13,4.13,17.36,17.36,0,0,1-14.15,0,12.94,12.94,0,0,1-5.14-4.13,9.54,9.54,0,0,1-1.89-5.7h6.14a4.41,4.41,0,0,0,2.36,3.65,10,10,0,0,0,5.6,1.55,11.06,11.06,0,0,0,5.6-1.33,3.9,3.9,0,0,0,2.31-3.4,3.54,3.54,0,0,0-.76-2.32,4.62,4.62,0,0,0-2-1.43,17.28,17.28,0,0,0-2.92-.8c-1.1-.2-2.25-.4-3.47-.6s-2.43-.42-3.65-.68a15.81,15.81,0,0,1-3.48-1.16,11.77,11.77,0,0,1-2.92-1.91,7.9,7.9,0,0,1-2-3.09,12.67,12.67,0,0,1-.76-4.56,10.09,10.09,0,0,1,1.89-5.83,13.53,13.53,0,0,1,5.15-4.37,15.5,15.5,0,0,1,7.07-1.65,16.59,16.59,0,0,1,7.07,1.51,13,13,0,0,1,5.13,4.13,9.54,9.54,0,0,1,1.89,5.7h-6.14a4.39,4.39,0,0,0-2.35-3.67,10,10,0,0,0-5.59-1.54,9.56,9.56,0,0,0-5.45,1.53A5.35,5.35,0,0,0,283.67,351Z" transform="translate(-21.53 -120.68)"/>
    <path class="cls-2" d="M333.65,339.62h6.14v39.31h-6.14V362.28H315.46v16.65h-6.14V339.62h6.14v16.52h18.19Z" transform="translate(-21.53 -120.68)"/>
    <path class="cls-2" d="M371.48,345.76h-22v10.39h22v6.14h-22v10.49h22v6.14h-28.1V339.64h28.1Z" transform="translate(-21.53 -120.68)"/>
    <path class="cls-2" d="M398.83,360.74l7.46,18.19h-7.22l-6.93-16.6H381.2v16.6h-6.14V339.62h18a11.34,11.34,0,0,1,5.77,21.12ZM393,356.2a5.22,5.22,0,0,0,5.24-5.2v0a5,5,0,0,0-1.53-3.69,5.07,5.07,0,0,0-3.71-1.51H381.19V356.2Z" transform="translate(-21.53 -120.68)"/>
    <path class="cls-2" d="M415.05,378.94h-6.14V339.63h6.14Z" transform="translate(-21.53 -120.68)"/>
    <path class="cls-2" d="M446.72,345.76h-22v10.39h22v6.14h-22v10.49h22v6.14h-28.1V339.64h28.1Z" transform="translate(-21.53 -120.68)"/>
    <path class="cls-2" d="M456.43,351a4,4,0,0,0,.44,2.58,4.15,4.15,0,0,0,1.86,1.63,15.34,15.34,0,0,0,2.88,1c1.1.26,2.27.49,3.52.7s2.5.45,3.76.7a18.88,18.88,0,0,1,3.61,1.12,13,13,0,0,1,3.05,1.79,7.48,7.48,0,0,1,2.13,2.87,10.36,10.36,0,0,1,.8,4.22,9.54,9.54,0,0,1-1.89,5.7,13,13,0,0,1-5.13,4.13,17.36,17.36,0,0,1-14.15,0,12.94,12.94,0,0,1-5.14-4.13,9.54,9.54,0,0,1-1.89-5.7h6.14a4.41,4.41,0,0,0,2.36,3.65,10,10,0,0,0,5.6,1.55,11.06,11.06,0,0,0,5.6-1.33,3.9,3.9,0,0,0,2.31-3.4,3.54,3.54,0,0,0-.76-2.32,4.62,4.62,0,0,0-2-1.43,17.28,17.28,0,0,0-2.92-.8c-1.1-.2-2.25-.4-3.47-.6s-2.43-.42-3.65-.68a15.81,15.81,0,0,1-3.48-1.16,11.77,11.77,0,0,1-2.92-1.91,7.9,7.9,0,0,1-2-3.09,12.67,12.67,0,0,1-.76-4.56,10.09,10.09,0,0,1,1.89-5.83,13.53,13.53,0,0,1,5.15-4.37,15.5,15.5,0,0,1,7.07-1.65,16.59,16.59,0,0,1,7.07,1.51,13,13,0,0,1,5.13,4.13,9.54,9.54,0,0,1,1.89,5.7h-6.14a4.39,4.39,0,0,0-2.35-3.67,10,10,0,0,0-5.59-1.54,9.56,9.56,0,0,0-5.45,1.53A5.35,5.35,0,0,0,456.43,351Z" transform="translate(-21.53 -120.68)"/>
  </g>
</svg>
