<svg id="Layer_1" data-name="Layer 1" xmlns="http://www.w3.org/2000/svg" width="258.93" height="300.03" viewBox="0 0 258.93 300.03">
  <defs>
    <style>
      .cls-1 {
        fill: #e80f0f;
      }

      .cls-2 {
        fill: #fff;
      }
    </style>
  </defs>
  <g>
    <g>
      <polygon className="cls-1" points="0 222.01 126.89 0 158.84 48.64 59.88 222.43 0 222.01"/>
      <path className="cls-2" d="M203.45,322.42,288.3,168.77l86,153.65H350.26l-61.38-113s-61.83,112.47-62.23,113S203.45,322.42,203.45,322.42Z" transform="translate(-120.53 -99.99)"/>
      <polygon className="cls-1" points="168.47 222.43 129.48 222.43 148.97 188.66 168.47 154.89 187.97 188.66 207.47 222.43 168.47 222.43"/>
    </g>
    <g>
      <path className="cls-2" d="M120.53,399V348.11L123,348l-1.08-2a11.8,11.8,0,0,1-1.39-5.55h24.18q8.59,0,13.54,4.26t4.95,12.85q0,6.92-3.53,11.28c-2.2,2.51-9.63,4.38-9.63,4.38a1.84,1.84,0,0,1,.63.14l.74.17a5.53,5.53,0,0,1,2.1.94,5.2,5.2,0,0,1,1.41,2.12l.5,1.19.79,1.84,1,2.33,1.13,2.67,1.2,2.84,1.21,2.85,1.14,2.69,1,2.38.81,1.9.53,1.26.2.47H154.07l-9.67-23.95H130.28V399Zm22.87-32.39q5,0,7.6-2.27a8.1,8.1,0,0,0,2.61-6.48,8,8,0,0,0-2.65-6.45q-2.64-2.22-7.56-2.22H130.28v17.42Z" transform="translate(-120.53 -99.99)"/>
      <path className="cls-2" d="M211.4,399H172.64V352.43l3.37-3.22h-3.37v-8.75H211.4v8.75h-29v16.11h25.78V374H182.39v16.27h29Z" transform="translate(-120.53 -99.99)"/>
      <path className="cls-2" d="M236.18,399l-21-58.56h10.13l14.12,41.9c1,2.87.45,8.41.45,10.25,0,0,2.7-7.54,3.62-10.25l14.2-41.9h10.13L246.93,399Z" transform="translate(-120.53 -99.99)"/>
      <path className="cls-2" d="M289.91,399l-21-58.56h10.13l14.13,41.9c1,2.87.85,7.72.85,9.56,0,0,2.29-6.85,3.21-9.56l14.2-41.9H321.6l-21,58.56Z" transform="translate(-120.53 -99.99)"/>
      <path className="cls-2" d="M336,395.91a25.34,25.34,0,0,1-9.4-11,38.77,38.77,0,0,1,0-30.43,25.1,25.1,0,0,1,9.4-10.89q6.3-4.08,15.51-4.07t15.46,4.07a24.93,24.93,0,0,1,9.44,10.93,38.68,38.68,0,0,1,0,30.39,25.23,25.23,0,0,1-9.44,11q-6.33,4.09-15.46,4.1T336,395.91Zm28.74-10.56q4.72-5.89,4.72-15.65t-4.72-15.58q-4.71-5.91-13.23-5.91a16.42,16.42,0,0,0-15.85,10.32,30.81,30.81,0,0,0,0,22.41,16.42,16.42,0,0,0,15.85,10.32Q360,391.26,364.69,385.35Z" transform="translate(-120.53 -99.99)"/>
    </g>
  </g>
</svg>
