<?xml version="1.0" encoding="utf-8"?>
<!-- Generator: Adobe Illustrator 24.1.2, SVG Export Plug-In . SVG Version: 6.00 Build 0)  -->
<svg version="1.1" id="Layer_1" xmlns="http://www.w3.org/2000/svg" xmlns:xlink="http://www.w3.org/1999/xlink" x="0px" y="0px"
	 viewBox="0 0 4000 2663" style="enable-background:new 0 0 4000 2663;" xml:space="preserve">
<style type="text/css">
	.st0{fill:#221E28;}
	.st1{fill:#CA111A;}
</style>
<g>
	<path class="st0" d="M2270.4,654.4c-0.3,21.6-1.2,43.2-2.8,64.6c-0.8,10.2-1.8,20.4-2.9,30.5c-25.4-20.7-62.3-46.1-110.9-66.3
		c-58.4-24.3-124.9-38.4-188.3-32.6c-63.5,5.8-124.3,31.9-172.2,73.9c1.7-1.5-22.6-30.9-25.1-33.9c-9.5-11.3-19.4-22.2-30.8-31.6
		c-3.7-3-7.6-5.9-11.7-8.3c-19.5-11.7-44.8-15.4-67.2-16.7c-12-0.7-24-0.4-36,1c-6.6,0.8-20.4,0.7-25.9,4.7
		c17.2-12.4,35-23.8,53.3-34.3c59.7-33.9,124.5-57.4,192.6-67.4c6.7-1,13.3-1.8,20-2.5c134.5-14.6,265.3,27,378,99.2
		C2250.7,641.2,2260.7,647.8,2270.4,654.4z"/>
	<path class="st0" d="M2380.7,757.1c0.8,18.5,0.5,39.9-2,63.6c-2.3,21.3-5.9,40.4-9.9,57c15.9,21.9,36.1,55,50,98.9
		c38.8,122.6,2.4,258.7-83.5,352.6c-0.9,1-10.8,10.5-10.5,11c4.3,7.9,8.6,16.8,12.6,26.7c5.7,14,9.5,27.1,12.2,38.6
		c10.7-6.1,21.4-12.2,32.1-18.3l15.1,31.6l-31.2,26.6c3.5,10.4,6.9,20.9,10.4,31.3c11.1-8.3,22.1-16.6,33.2-24.9l9.6,36.7l-33,23.8
		l6.4,35.8c11.6-9,23.2-18,34.9-27.1c0.9,20.9,1.8,41.9,2.8,62.8c-0.2-4.3,14.9-18.5,17.8-22.3c7.4-9.8,14.5-19.9,21.2-30.2
		c12.6-19.3,23.8-39.5,33.7-60.4c59-124.5,68.4-274.1,38.9-407.7c-6.3-28.4-14.4-56.3-24.4-83.6c-18.3-49.8-42.7-96.9-72.5-140.7
		C2423,807.6,2401.2,780.4,2380.7,757.1z"/>
	<path class="st1" d="M2274.8,899.9c-33.1,143.3-94.2,280.1-172.4,404.3c-21,33.3-42.9,65.9-66.2,97.7
		c-54.7,74.7-116.5,145.2-189,203.2c-73.9,59.1-163.8,109.4-259,121.2c-39.6,4.9-80.7,1.8-117.5-13.4
		c-57.5-23.7-100.2-74.9-125.7-131.6c37.5,44.3,90.8,79.3,147.9,91.7c56.3,12.2,114.1-2.4,165.2-26.4
		c90.3-42.4,170.4-106.4,239.8-177.6l2.4,1.9l37-38.2l-3.2-2.4c122.3-135.9,216.9-296.1,279.1-468.3c24.8-68.7,43.1-140,51.5-212.5
		c1.2-10.2,2.2-20.3,2.9-30.5c1.6-21.3,2.6-43,2.8-64.6c0.2-17.6,0-35.1-0.8-52.4c-1.3-31.1,1.5-75.9-10.2-105.1
		c11.5,28.8,23.1,64.3,31.1,105.8C2309.3,700.1,2297,803.4,2274.8,899.9z"/>
	<path class="st1" d="M1937.2,1432.8l-37,38.2l-2.4-1.9c2.2-2.3,4.4-4.6,6.6-6.8c10.1-10.5,20-21.1,29.7-31.9L1937.2,1432.8z"/>
	<path class="st1" d="M1530.5,679.8l36.5,13.1c-6.9,8-14.1,17.1-21.2,27.2c-12.6,18.1-22,35.6-29,51c-14.2,0-28.4,0-42.6,0
		L1530.5,679.8z"/>
	<path class="st1" d="M1659.2,705c6.9-11.5,15-23.8,24.5-36.4c6-8,12.1-15.4,18-22.2c11.3,6.2,22.6,12.3,33.9,18.5
		c-5.1,6.6-10.3,13.7-15.4,21.4c-5.9,8.7-11.2,17.2-15.9,25.4c-6.5-1.9-14-3.6-22.5-4.9C1673.5,705.6,1665.9,705.1,1659.2,705z"/>
	<path class="st1" d="M1520.5,773c0.2-0.9,41.4-1.3,45.2-1.7c30.8-2.7,61.4-8.6,90.9-17.6c2.4,7.5,5.1,15.3,8.3,23.4
		c2.8,7.3,5.8,14.2,8.7,20.6c0.6,1.2-48.5,15.9-52.5,16.8c-18.3,4.3-36.9,7-55.6,8.2c-4.3,0.3-50.1,1.8-50.3-0.5
		c-0.4-7.7-0.3-16.9,1-27.1C1517.1,786.8,1518.7,779.4,1520.5,773z"/>
	<path class="st1" d="M1697.4,753.7c2.3-1.7,21.6-35.6,21.6-35.6l51.4,28.9l-21.8,33.9L1697.4,753.7z"/>
	<path class="st1" d="M1577.2,863.5c0,0,24,0.8,37.8-3.8l7.6,70.3l-44,3.7L1577.2,863.5z"/>
	<polygon class="st1" points="1649.5,853.4 1698.8,839.6 1709.8,893.8 1659.3,907.3 	"/>
	<path class="st1" d="M1457.5,925.6c-1.9,19.6-2.7,43.6-0.3,70.7c2.2,24.5,6.6,46,11.3,63.7c-12.6,7.2-25.3,14.5-37.9,21.7
		c-4.7-28.3-8.2-60.2-9.2-95.1c-0.5-18.9-0.3-36.8,0.5-53.7C1433.8,930.5,1445.7,928.1,1457.5,925.6z"/>
	<path class="st1" d="M1655.7,989.1c0,0,39.4-5.5,49.5-9.6c0,0,15.1,67.9,17.4,68.6l-47.2,14.7c-3.9-11.9-7.7-24.5-11.2-37.8
		C1660.8,1012.5,1658,1000.6,1655.7,989.1z"/>
	<path class="st1" d="M1579.5,1002.4l39-10.3c0.2,10.4,1.1,22.8,3.8,36.6c2.7,13.9,6.5,25.9,10.2,35.7c-13.8,4.4-27.5,8.7-41.3,13.1
		c-2.9-11.3-5.7-23.9-7.8-37.6C1581.3,1026.4,1580.1,1013.9,1579.5,1002.4z"/>
	<path class="st1" d="M1504.3,1083.9l48.5-10.7c1.4,10.1,3.5,21.3,6.6,33.3c3.3,12.9,7.2,24.5,11.2,34.5
		c-16.2,4.4-32.4,8.9-48.6,13.3c-4.6-9.7-9.4-22.2-12.8-37C1506.1,1104.8,1504.8,1093.5,1504.3,1083.9z"/>
	<path class="st1" d="M1602.9,1139.8l49.5-14l45.9,79.6l-42.6,31.2c-8.5-13.3-17.2-27.7-25.7-43.1
		C1619.7,1174.8,1610.7,1156.9,1602.9,1139.8z"/>
	<path class="st1" d="M1726.9,1168.3l44-26.6c5.2,10.7,12.3,23,21.6,35.7c6.5,8.9,13.1,16.5,19.3,23c-12.7,13.5-25.5,26.9-38.2,40.4
		c-8.7-9-18.8-20.9-28.4-36.1C1737,1191.4,1731.1,1178.9,1726.9,1168.3z"/>
	<polygon class="st1" points="1477.7,1287.7 1514.6,1259.5 1542.6,1302.4 1505,1334 	"/>
	<polygon class="st1" points="1527.2,1385.1 1567,1343.5 1623.6,1416.9 1582,1461.5 	"/>
	<path class="st1" d="M1689.3,1284.5l35.5-32.4l81.9,77l-35.2,41.3c-16.6-13.6-34.5-30.1-52.4-49.8
		C1707.9,1308.2,1698,1296.1,1689.3,1284.5z"/>
	<path class="st1" d="M1870,1322.1l33.3-42.8l64.2,40.4l-30.6,42.8c-10.6-3.8-23.3-9.4-36.8-17.7
		C1887.7,1337.1,1877.8,1329.2,1870,1322.1z"/>
	<path class="st1" d="M1699.4,1452l44.9-49.5l74,56.3l-43.4,58.1c-14.5-9.7-30.3-21.6-46.5-36.1
		C1717.5,1471,1707.9,1461.3,1699.4,1452z"/>
	<polygon class="st1" points="1937.2,1432.8 1900.2,1471 1897.8,1469.1 1816.8,1406.8 1853.2,1368.3 1934.1,1430.3 	"/>
	<polygon class="st1" points="2211.5,1389 2260.1,1389 2266.5,1431.5 2211.5,1435.2 	"/>
	<path class="st1" d="M2272,1487.5l49.2-13.1l8.3,25.7c-7.4,3.4-15.7,6.8-25.1,9.9c-9,3-17.4,5.2-25.1,6.9
		C2276.9,1507.1,2274.5,1497.3,2272,1487.5z"/>
	<polygon class="st1" points="2140.4,1529.8 2142,1489.2 2210.1,1499.6 2210.1,1538.3 	"/>
	<polygon class="st1" points="2073.2,1497 2100,1508.1 2092.9,1534 2063.6,1524.3 	"/>
	<path class="st1" d="M2103.2,1567.7c9.1,2.9,20,5.6,32.3,7.5c12.6,1.9,23.9,2.5,33.6,2.4c-2.9,18.3-5.7,36.7-8.6,55l-65.4-8
		L2103.2,1567.7z"/>
	<polygon class="st1" points="1924.4,1680.1 1947.3,1639.4 1969.3,1653.2 1952.1,1693.1 	"/>
	<polygon class="st1" points="2143.9,1680.4 2183.4,1680.4 2181.2,1716.5 2140.4,1716.5 	"/>
	<path class="st1" d="M2228,1676.7c8.3-0.8,17.4-2,27.1-3.8c11.7-2.3,22.3-5.1,31.6-8.1c1.5,10.4,3.1,20.8,4.6,31.2
		c-6.2,3.8-14.5,8-24.8,11.2c-14.7,4.5-27.5,5.1-36.4,4.7C2229.4,1700.2,2228.7,1688.5,2228,1676.7z"/>
</g>
<g>
	<g>
		<path class="st1" d="M994.5,1953.2v115.2h-23.1v-115.2H994.5z"/>
		<path class="st1" d="M1094.3,1985.9c6.7,6.9,10.1,16.5,10.1,28.8v53.6h-23.1v-50.5c0-7.3-1.8-12.8-5.4-16.7
			c-3.6-3.9-8.6-5.9-14.8-5.9c-6.4,0-11.4,2-15.1,5.9c-3.7,3.9-5.5,9.5-5.5,16.7v50.5h-23.1v-91.4h23.1v11.4c3.1-4,7-7.1,11.8-9.3
			c4.8-2.3,10-3.4,15.8-3.4C1078.8,1975.6,1087.6,1979,1094.3,1985.9z"/>
		<path class="st1" d="M1153.2,1995.9v44.2c0,3.1,0.7,5.3,2.2,6.7c1.5,1.4,4,2.1,7.5,2.1h10.7v19.5h-14.5
			c-19.5,0-29.2-9.5-29.2-28.4v-44H1119v-19h10.9v-22.6h23.3v22.6h20.5v19H1153.2z"/>
		<path class="st1" d="M1274.6,2029.6h-66.8c0.5,6.6,2.9,11.8,6.9,15.5c4.1,3.7,9.1,5.6,15,5.6c8.6,0,14.7-3.7,18.3-11.1h24.9
			c-2.6,8.8-7.7,16-15.2,21.7c-7.5,5.7-16.7,8.5-27.6,8.5c-8.8,0-16.7-2-23.7-5.9c-7-3.9-12.4-9.4-16.3-16.6
			c-3.9-7.1-5.9-15.4-5.9-24.7c0-9.5,1.9-17.8,5.8-24.9c3.8-7.1,9.2-12.6,16.2-16.5c6.9-3.8,14.9-5.8,23.9-5.8
			c8.7,0,16.5,1.9,23.3,5.6c6.9,3.7,12.2,9,16,15.9c3.8,6.9,5.7,14.8,5.7,23.7C1275.3,2023.9,1275,2026.9,1274.6,2029.6z
			 M1251.3,2014c-0.1-5.9-2.3-10.7-6.4-14.3c-4.2-3.6-9.3-5.4-15.3-5.4c-5.7,0-10.5,1.7-14.4,5.2c-3.9,3.5-6.3,8.3-7.2,14.4H1251.3z
			"/>
		<path class="st1" d="M1315.2,1946.2v122.1h-23.1v-122.1H1315.2z"/>
		<path class="st1" d="M1361.1,1946.2v122.1H1338v-122.1H1361.1z"/>
		<path class="st1" d="M1385.4,1962.2c-2.7-2.6-4-5.8-4-9.7c0-3.8,1.3-7.1,4-9.7c2.7-2.6,6.1-3.9,10.1-3.9c4.1,0,7.4,1.3,10.1,3.9
			c2.7,2.6,4,5.8,4,9.7c0,3.9-1.3,7.1-4,9.7c-2.7,2.6-6.1,3.9-10.1,3.9C1391.5,1966,1388.1,1964.7,1385.4,1962.2z M1406.9,1976.9
			v91.4h-23.1v-91.4H1406.9z"/>
		<path class="st1" d="M1483.5,1979.5c5.2,2.7,9.2,6.2,12.2,10.5v-13h23.3v92.1c0,8.5-1.7,16-5.1,22.7c-3.4,6.7-8.5,11.9-15.3,15.8
			c-6.8,3.9-15.1,5.9-24.7,5.9c-13,0-23.6-3-31.9-9.1c-8.3-6.1-13-14.3-14.1-24.7h22.9c1.2,4.2,3.8,7.5,7.8,10
			c4,2.5,8.9,3.7,14.6,3.7c6.7,0,12.2-2,16.3-6c4.2-4,6.3-10.1,6.3-18.2v-14.2c-3,4.3-7.1,7.9-12.3,10.7c-5.2,2.9-11.2,4.3-17.9,4.3
			c-7.7,0-14.7-2-21.1-5.9c-6.4-4-11.4-9.5-15.1-16.7c-3.7-7.2-5.5-15.5-5.5-24.8c0-9.2,1.8-17.4,5.5-24.6c3.7-7.1,8.7-12.6,15-16.5
			c6.3-3.8,13.4-5.8,21.2-5.8C1472.3,1975.4,1478.3,1976.8,1483.5,1979.5z M1492.4,2008.2c-2.2-4-5.2-7.1-8.9-9.2
			c-3.7-2.1-7.8-3.2-12-3.2s-8.2,1-11.9,3.1c-3.6,2.1-6.6,5.1-8.8,9.2c-2.3,4-3.4,8.8-3.4,14.3c0,5.5,1.1,10.3,3.4,14.4
			c2.3,4.1,5.2,7.3,8.9,9.5c3.7,2.2,7.6,3.3,11.8,3.3c4.3,0,8.3-1.1,12-3.2c3.7-2.1,6.7-5.2,8.9-9.2c2.2-4,3.3-8.8,3.3-14.4
			S1494.6,2012.2,1492.4,2008.2z"/>
		<path class="st1" d="M1625.8,2029.6H1559c0.5,6.6,2.9,11.8,6.9,15.5c4.1,3.7,9.1,5.6,15,5.6c8.6,0,14.7-3.7,18.3-11.1h24.9
			c-2.6,8.8-7.7,16-15.2,21.7c-7.5,5.7-16.7,8.5-27.6,8.5c-8.8,0-16.7-2-23.7-5.9c-7-3.9-12.4-9.4-16.3-16.6
			c-3.9-7.1-5.9-15.4-5.9-24.7c0-9.5,1.9-17.8,5.8-24.9c3.8-7.1,9.2-12.6,16.2-16.5c6.9-3.8,14.9-5.8,23.9-5.8
			c8.7,0,16.5,1.9,23.3,5.6c6.9,3.7,12.2,9,16,15.9c3.8,6.9,5.7,14.8,5.7,23.7C1626.5,2023.9,1626.3,2026.9,1625.8,2029.6z
			 M1602.6,2014c-0.1-5.9-2.3-10.7-6.4-14.3c-4.2-3.6-9.3-5.4-15.3-5.4c-5.7,0-10.5,1.7-14.4,5.2c-3.9,3.5-6.3,8.3-7.2,14.4H1602.6z
			"/>
		<path class="st1" d="M1720.4,1985.9c6.7,6.9,10.1,16.5,10.1,28.8v53.6h-23.1v-50.5c0-7.3-1.8-12.8-5.4-16.7
			c-3.6-3.9-8.6-5.9-14.8-5.9c-6.4,0-11.4,2-15.1,5.9c-3.7,3.9-5.5,9.5-5.5,16.7v50.5h-23.1v-91.4h23.1v11.4c3.1-4,7-7.1,11.8-9.3
			c4.8-2.3,10-3.4,15.8-3.4C1704.9,1975.6,1713.7,1979,1720.4,1985.9z"/>
		<path class="st1" d="M1779.3,1995.9v44.2c0,3.1,0.7,5.3,2.2,6.7c1.5,1.4,4,2.1,7.5,2.1h10.7v19.5h-14.5
			c-19.5,0-29.2-9.5-29.2-28.4v-44h-10.9v-19h10.9v-22.6h23.3v22.6h20.5v19H1779.3z"/>
		<path class="st1" d="M1863.3,2065.6c-2.7-2.6-4-5.8-4-9.7c0-3.8,1.3-7.1,4-9.7c2.7-2.6,6.1-3.9,10.3-3.9c4.1,0,7.4,1.3,10.1,3.9
			c2.6,2.6,4,5.8,4,9.7c0,3.9-1.3,7.1-4,9.7c-2.6,2.6-6,3.9-10.1,3.9C1869.5,2069.5,1866,2068.2,1863.3,2065.6z M1885.5,1951.2
			l-2.6,79.7h-19.5l-2.8-79.7H1885.5z"/>
		<path class="st1" d="M1976.4,1971.8v28.9h38.8v18.3h-38.8v30.5h43.7v18.8h-66.8V1953h66.8v18.8H1976.4z"/>
		<path class="st1" d="M2118.1,1985.9c6.7,6.9,10.1,16.5,10.1,28.8v53.6h-23.1v-50.5c0-7.3-1.8-12.8-5.4-16.7
			c-3.6-3.9-8.6-5.9-14.8-5.9c-6.4,0-11.4,2-15.1,5.9c-3.7,3.9-5.5,9.5-5.5,16.7v50.5h-23.1v-91.4h23.1v11.4c3.1-4,7-7.1,11.8-9.3
			c4.8-2.3,10-3.4,15.8-3.4C2102.6,1975.6,2111.4,1979,2118.1,1985.9z"/>
		<path class="st1" d="M2203.9,1979.5c5.2,2.7,9.2,6.2,12.2,10.5v-13h23.3v92.1c0,8.5-1.7,16-5.1,22.7c-3.4,6.7-8.5,11.9-15.3,15.8
			c-6.8,3.9-15.1,5.9-24.7,5.9c-13,0-23.6-3-31.9-9.1c-8.3-6.1-13-14.3-14.1-24.7h22.9c1.2,4.2,3.8,7.5,7.8,10
			c4,2.5,8.9,3.7,14.6,3.7c6.7,0,12.2-2,16.3-6c4.2-4,6.3-10.1,6.3-18.2v-14.2c-3,4.3-7.1,7.9-12.3,10.7c-5.2,2.9-11.2,4.3-17.9,4.3
			c-7.7,0-14.7-2-21.1-5.9c-6.4-4-11.4-9.5-15.1-16.7c-3.7-7.2-5.5-15.5-5.5-24.8c0-9.2,1.8-17.4,5.5-24.6c3.7-7.1,8.7-12.6,15-16.5
			c6.3-3.8,13.4-5.8,21.2-5.8C2192.8,1975.4,2198.8,1976.8,2203.9,1979.5z M2212.8,2008.2c-2.2-4-5.2-7.1-8.9-9.2
			c-3.7-2.1-7.8-3.2-12-3.2s-8.2,1-11.9,3.1c-3.6,2.1-6.6,5.1-8.8,9.2c-2.3,4-3.4,8.8-3.4,14.3c0,5.5,1.1,10.3,3.4,14.4
			c2.3,4.1,5.2,7.3,8.9,9.5c3.7,2.2,7.6,3.3,11.8,3.3c4.3,0,8.3-1.1,12-3.2c3.7-2.1,6.7-5.2,8.9-9.2c2.2-4,3.3-8.8,3.3-14.4
			S2215,2012.2,2212.8,2008.2z"/>
		<path class="st1" d="M2263.6,1962.2c-2.7-2.6-4-5.8-4-9.7c0-3.8,1.3-7.1,4-9.7c2.7-2.6,6.1-3.9,10.1-3.9c4.1,0,7.4,1.3,10.1,3.9
			c2.7,2.6,4,5.8,4,9.7c0,3.9-1.3,7.1-4,9.7c-2.7,2.6-6.1,3.9-10.1,3.9C2269.6,1966,2266.3,1964.7,2263.6,1962.2z M2285.1,1976.9
			v91.4H2262v-91.4H2285.1z"/>
		<path class="st1" d="M2384.9,1985.9c6.7,6.9,10.1,16.5,10.1,28.8v53.6h-23.1v-50.5c0-7.3-1.8-12.8-5.4-16.7
			c-3.6-3.9-8.6-5.9-14.8-5.9c-6.4,0-11.4,2-15.1,5.9c-3.7,3.9-5.5,9.5-5.5,16.7v50.5h-23.1v-91.4h23.1v11.4c3.1-4,7-7.1,11.8-9.3
			c4.8-2.3,10-3.4,15.8-3.4C2369.4,1975.6,2378.2,1979,2384.9,1985.9z"/>
		<path class="st1" d="M2501.2,2029.6h-66.8c0.5,6.6,2.9,11.8,6.9,15.5c4.1,3.7,9.1,5.6,15,5.6c8.6,0,14.7-3.7,18.3-11.1h24.9
			c-2.6,8.8-7.7,16-15.2,21.7c-7.5,5.7-16.7,8.5-27.6,8.5c-8.8,0-16.7-2-23.7-5.9c-7-3.9-12.4-9.4-16.3-16.6
			c-3.9-7.1-5.9-15.4-5.9-24.7c0-9.5,1.9-17.8,5.8-24.9c3.8-7.1,9.2-12.6,16.2-16.5c6.9-3.8,14.9-5.8,23.9-5.8
			c8.7,0,16.5,1.9,23.3,5.6c6.9,3.7,12.2,9,16,15.9c3.8,6.9,5.7,14.8,5.7,23.7C2501.9,2023.9,2501.7,2026.9,2501.2,2029.6z
			 M2478,2014c-0.1-5.9-2.3-10.7-6.4-14.3c-4.2-3.6-9.3-5.4-15.3-5.4c-5.7,0-10.5,1.7-14.4,5.2c-3.9,3.5-6.3,8.3-7.2,14.4H2478z"/>
		<path class="st1" d="M2603,2029.6h-66.8c0.5,6.6,2.9,11.8,6.9,15.5c4.1,3.7,9.1,5.6,15,5.6c8.6,0,14.7-3.7,18.3-11.1h24.9
			c-2.6,8.8-7.7,16-15.2,21.7c-7.5,5.7-16.7,8.5-27.6,8.5c-8.8,0-16.7-2-23.7-5.9c-7-3.9-12.4-9.4-16.3-16.6
			c-3.9-7.1-5.9-15.4-5.9-24.7c0-9.5,1.9-17.8,5.8-24.9c3.8-7.1,9.2-12.6,16.2-16.5c6.9-3.8,14.9-5.8,23.9-5.8
			c8.7,0,16.5,1.9,23.3,5.6c6.9,3.7,12.2,9,16,15.9c3.8,6.9,5.7,14.8,5.7,23.7C2603.7,2023.9,2603.4,2026.9,2603,2029.6z
			 M2579.7,2014c-0.1-5.9-2.3-10.7-6.4-14.3c-4.2-3.6-9.3-5.4-15.3-5.4c-5.7,0-10.5,1.7-14.4,5.2c-3.9,3.5-6.3,8.3-7.2,14.4H2579.7z
			"/>
		<path class="st1" d="M2655.2,1979.7c4.8-2.7,10.3-4.1,16.4-4.1v24.3h-6.1c-7.3,0-12.7,1.7-16.4,5.1c-3.7,3.4-5.5,9.3-5.5,17.8
			v45.5h-23.1v-91.4h23.1v14.2C2646.6,1986.3,2650.4,1982.5,2655.2,1979.7z"/>
		<path class="st1" d="M2688.7,1962.2c-2.7-2.6-4-5.8-4-9.7c0-3.8,1.3-7.1,4-9.7c2.7-2.6,6.1-3.9,10.1-3.9c4.1,0,7.4,1.3,10.1,3.9
			c2.7,2.6,4,5.8,4,9.7c0,3.9-1.3,7.1-4,9.7c-2.7,2.6-6.1,3.9-10.1,3.9C2694.8,1966,2691.4,1964.7,2688.7,1962.2z M2710.2,1976.9
			v91.4h-23.1v-91.4H2710.2z"/>
		<path class="st1" d="M2810.1,1985.9c6.7,6.9,10.1,16.5,10.1,28.8v53.6H2797v-50.5c0-7.3-1.8-12.8-5.4-16.7
			c-3.6-3.9-8.6-5.9-14.8-5.9c-6.4,0-11.4,2-15.1,5.9c-3.7,3.9-5.5,9.5-5.5,16.7v50.5H2733v-91.4h23.1v11.4c3.1-4,7-7.1,11.8-9.3
			c4.8-2.3,10-3.4,15.8-3.4C2794.5,1975.6,2803.3,1979,2810.1,1985.9z"/>
		<path class="st1" d="M2895.8,1979.5c5.2,2.7,9.2,6.2,12.2,10.5v-13h23.3v92.1c0,8.5-1.7,16-5.1,22.7c-3.4,6.7-8.5,11.9-15.3,15.8
			c-6.8,3.9-15.1,5.9-24.7,5.9c-13,0-23.6-3-31.9-9.1c-8.3-6.1-13-14.3-14.1-24.7h22.9c1.2,4.2,3.8,7.5,7.8,10
			c4,2.5,8.9,3.7,14.6,3.7c6.7,0,12.2-2,16.3-6c4.2-4,6.3-10.1,6.3-18.2v-14.2c-3,4.3-7.1,7.9-12.3,10.7c-5.2,2.9-11.2,4.3-17.9,4.3
			c-7.7,0-14.7-2-21.1-5.9c-6.4-4-11.4-9.5-15.1-16.7c-3.7-7.2-5.5-15.5-5.5-24.8c0-9.2,1.8-17.4,5.5-24.6c3.7-7.1,8.7-12.6,15-16.5
			c6.3-3.8,13.4-5.8,21.2-5.8C2884.7,1975.4,2890.7,1976.8,2895.8,1979.5z M2904.8,2008.2c-2.2-4-5.2-7.1-8.9-9.2
			c-3.7-2.1-7.8-3.2-12-3.2s-8.2,1-11.9,3.1c-3.6,2.1-6.6,5.1-8.8,9.2c-2.3,4-3.4,8.8-3.4,14.3c0,5.5,1.1,10.3,3.4,14.4
			c2.3,4.1,5.2,7.3,8.9,9.5c3.7,2.2,7.6,3.3,11.8,3.3c4.3,0,8.3-1.1,12-3.2c3.7-2.1,6.7-5.2,8.9-9.2c2.2-4,3.3-8.8,3.3-14.4
			S2906.9,2012.2,2904.8,2008.2z"/>
	</g>
</g>
</svg>
