<svg id="Layer_1" data-name="Layer 1" xmlns="http://www.w3.org/2000/svg" width="46.79in" height="23.38in" viewBox="0 0 3368.93 1683.02">
  <defs>
    <style>
      .cls-1 {
        fill: #221e28;
      }

      .cls-2 {
        fill: #ca111a;
      }
    </style>
  </defs>
  <g>
    <path class="cls-1" d="M2270.57,654.53c-.25,21.6-1.21,43.24-2.84,64.56q-1.17,15.3-3,30.54a448.41,448.41,0,0,0-110.92-66.28c-58.39-24.25-124.9-38.44-188.26-32.63a304.27,304.27,0,0,0-172.22,73.91c1.67-1.47-22.6-30.92-25.15-34-9.45-11.26-19.36-22.24-30.77-31.55a99.4,99.4,0,0,0-11.65-8.32c-19.53-11.71-44.83-15.42-67.25-16.72a209.19,209.19,0,0,0-36,1c-6.56.76-20.45.7-25.94,4.66a586.9,586.9,0,0,1,53.35-34.28c59.72-33.89,124.6-57.39,192.64-67.39q10-1.47,20-2.54c134.51-14.58,265.35,27,378,99.17Q2256,644.64,2270.57,654.53Z" transform="translate(-315.65 -496.91)"/>
    <path class="cls-1" d="M2380.89,757.19A430.73,430.73,0,0,1,2369,877.81a345.52,345.52,0,0,1,50,98.91c38.78,122.65,2.37,258.75-83.52,352.61-.91,1-10.76,10.52-10.49,11a257.5,257.5,0,0,1,24.77,65.37l32.1-18.36L2397,1419l-31.18,26.6q5.19,15.67,10.39,31.34l33.17-24.92,9.63,36.69-33,23.85,6.42,35.78,34.85-27.07q1.38,31.42,2.75,62.84c-.19-4.3,14.94-18.45,17.83-22.28q11.11-14.7,21.17-30.16a518,518,0,0,0,33.71-60.37c59-124.51,68.39-274.15,38.92-407.74a641.15,641.15,0,0,0-96.94-224.27A828.14,828.14,0,0,0,2380.89,757.19Z" transform="translate(-315.65 -496.91)"/>
    <path class="cls-2" d="M2275,900c-33.1,143.31-94.17,280.09-172.45,404.31-21,33.27-42.94,65.92-66.16,97.68-54.66,74.74-116.51,145.25-189,203.23-73.95,59.14-163.81,109.42-259,121.22-39.58,4.9-80.68,1.79-117.54-13.38-57.48-23.66-100.22-74.92-125.73-131.58,37.52,44.33,90.79,79.35,147.9,91.73,56.26,12.17,114.1-2.41,165.2-26.38,90.35-42.38,170.38-106.37,239.82-177.6l2.45,1.89,37-38.21-3.18-2.44c122.34-136,217-296.15,279.09-468.32,24.77-68.65,43.07-140,51.48-212.53q1.77-15.24,3-30.54c1.63-21.32,2.59-43,2.84-64.56.21-17.58,0-35.13-.78-52.46-1.32-31.09,1.49-75.93-10.21-105.16a578.86,578.86,0,0,1,31.07,105.78C2309.44,700.17,2297.18,803.54,2275,900Z" transform="translate(-315.65 -496.91)"/>
    <path class="cls-2" d="M1937.39,1432.92l-37,38.21-2.45-1.89q3.33-3.4,6.61-6.83,15.09-15.73,29.66-31.93Z" transform="translate(-315.65 -496.91)"/>
    <path class="cls-2" d="M1530.58,679.91,1567.05,693a325.45,325.45,0,0,0-50.23,78.2h-42.65Z" transform="translate(-315.65 -496.91)"/>
    <path class="cls-2" d="M1659.3,705.09a413.15,413.15,0,0,1,24.54-36.4c6-8,12-15.36,18-22.15l33.93,18.5c-5.08,6.61-10.26,13.74-15.43,21.4-5.92,8.74-11.19,17.24-15.9,25.38a171,171,0,0,0-45.11-6.73Z" transform="translate(-315.65 -496.91)"/>
    <path class="cls-2" d="M1520.6,773.1c.25-.88,41.37-1.32,45.18-1.65a446.05,446.05,0,0,0,90.92-17.62c2.37,7.46,5.1,15.29,8.26,23.4,2.83,7.29,5.76,14.18,8.71,20.64.57,1.24-48.55,15.89-52.54,16.82a340.33,340.33,0,0,1-55.64,8.17c-4.32.27-50.16,1.83-50.27-.53A156.38,156.38,0,0,1,1520.6,773.1Z" transform="translate(-315.65 -496.91)"/>
    <path class="cls-2" d="M1697.53,753.82c2.29-1.68,21.55-35.61,21.55-35.61l51.37,28.88L1748.66,781Z" transform="translate(-315.65 -496.91)"/>
    <path class="cls-2" d="M1577.37,863.59s24,.77,37.75-3.82l7.65,70.33-44,3.67Z" transform="translate(-315.65 -496.91)"/>
    <polygon class="cls-2" points="1333.95 356.59 1383.25 342.83 1394.26 396.95 1343.82 410.48 1333.95 356.59"/>
    <path class="cls-2" d="M1457.66,925.74a377,377,0,0,0,11,134.46l-37.92,21.7a704.93,704.93,0,0,1-9.18-95.09c-.53-18.89-.27-36.84.54-53.73Z" transform="translate(-315.65 -496.91)"/>
    <path class="cls-2" d="M1655.79,989.26s39.45-5.51,49.53-9.63c0,0,15.14,67.88,17.43,68.57l-47.24,14.67c-3.91-11.88-7.7-24.5-11.24-37.83C1661,1012.65,1658.18,1000.7,1655.79,989.26Z" transform="translate(-315.65 -496.91)"/>
    <path class="cls-2" d="M1579.66,1002.56l39-10.32a210.54,210.54,0,0,0,14,72.24l-41.28,13.07a379.57,379.57,0,0,1-7.79-37.61A366.25,366.25,0,0,1,1579.66,1002.56Z" transform="translate(-315.65 -496.91)"/>
    <path class="cls-2" d="M1504.44,1084l48.46-10.7a297.74,297.74,0,0,0,17.74,67.88L1522,1154.53a189.15,189.15,0,0,1-17.58-70.49Z" transform="translate(-315.65 -496.91)"/>
    <path class="cls-2" d="M1603.05,1139.92l49.53-14,45.87,79.58-42.66,31.18c-8.54-13.34-17.17-27.71-25.69-43.11C1619.8,1175,1610.85,1157,1603.05,1139.92Z" transform="translate(-315.65 -496.91)"/>
    <path class="cls-2" d="M1727,1168.44l44-26.61a232.93,232.93,0,0,0,41,58.71l-38.22,40.36A219.74,219.74,0,0,1,1727,1168.44Z" transform="translate(-315.65 -496.91)"/>
    <polygon class="cls-2" points="1162.19 790.91 1199.12 762.71 1227.09 805.59 1189.48 837.24 1162.19 790.91"/>
    <polygon class="cls-2" points="1211.73 888.3 1251.47 846.72 1308.04 920.1 1266.45 964.74 1211.73 888.3"/>
    <path class="cls-2" d="M1689.43,1284.63l35.46-32.42,81.94,77-35.16,41.28a494.85,494.85,0,0,1-52.43-49.84C1708,1308.34,1698.14,1296.21,1689.43,1284.63Z" transform="translate(-315.65 -496.91)"/>
    <path class="cls-2" d="M1870.15,1322.23l33.33-42.8,64.21,40.35-30.54,42.81A201.23,201.23,0,0,1,1870.15,1322.23Z" transform="translate(-315.65 -496.91)"/>
    <path class="cls-2" d="M1699.52,1452.15l44.94-49.53,74,56.25L1775,1517a415.41,415.41,0,0,1-46.47-36.07A397.84,397.84,0,0,1,1699.52,1452.15Z" transform="translate(-315.65 -496.91)"/>
    <polygon class="cls-2" points="1621.75 936 1584.75 974.22 1582.3 972.33 1501.28 910.01 1537.66 871.49 1618.57 933.56 1621.75 936"/>
    <polygon class="cls-2" points="1896.01 892.28 1944.63 892.28 1951.05 934.77 1896.01 938.45 1896.01 892.28"/>
    <path class="cls-2" d="M2272.18,1487.64l49.24-13.14,8.25,25.68a242.51,242.51,0,0,1-25.08,9.93,238.23,238.23,0,0,1-25.07,6.88Q2275.86,1502.32,2272.18,1487.64Z" transform="translate(-315.65 -496.91)"/>
    <polygon class="cls-2" points="1824.92 1033.08 1826.53 992.49 1894.63 1002.81 1894.63 1041.56 1824.92 1033.08"/>
    <polygon class="cls-2" points="1757.73 1000.29 1784.56 1011.29 1777.45 1037.2 1748.1 1027.57 1757.73 1000.29"/>
    <path class="cls-2" d="M2103.42,1567.83a216,216,0,0,0,65.92,9.86q-4.29,27.51-8.6,55l-65.35-8Z" transform="translate(-315.65 -496.91)"/>
    <polygon class="cls-2" points="1608.9 1183.35 1631.84 1142.69 1653.85 1156.45 1636.65 1196.36 1608.9 1183.35"/>
    <polygon class="cls-2" points="1828.44 1183.66 1867.88 1183.66 1865.74 1219.74 1824.92 1219.74 1828.44 1183.66"/>
    <path class="cls-2" d="M2228.18,1676.91c8.31-.75,17.38-2,27.05-3.82a276,276,0,0,0,31.65-8.1q2.31,15.59,4.58,31.18a109,109,0,0,1-61.14,15.9Q2229.18,1694.49,2228.18,1676.91Z" transform="translate(-315.65 -496.91)"/>
  </g>
  <g>
    <rect class="cls-2" y="1400.21" width="47.7" height="205.57" rx="4.05"/>
    <rect class="cls-2" x="1.35" y="1401.56" width="45" height="202.87" rx="2.7"/>
    <rect class="cls-2" x="2.7" y="1402.91" width="42.3" height="200.17" rx="1.35"/>
    <path class="cls-2" d="M359.3,1901.19v197.47H319.7V1901.19Z" transform="translate(-315.65 -496.91)"/>
    <path class="cls-2" d="M508.11,2102.7a4.07,4.07,0,0,1-4.05-4v-86.57c0-11.34-2.78-20.07-8.25-26s-12.84-8.75-22.5-8.75c-9.86,0-17.36,2.87-22.94,8.77S442,2000.71,442,2012v86.57a4,4,0,0,1-3.95,4H398.39a4.07,4.07,0,0,1-4.05-4V1941.92a4.05,4.05,0,0,1,4.05-4H438a4.06,4.06,0,0,1,4,4v9.32a60.93,60.93,0,0,1,14.45-9.45,67.14,67.14,0,0,1,28.75-6.18c19.71,0,35.91,6.36,48.15,18.9s18.41,30.08,18.41,52.19v92a4,4,0,0,1-3.95,4H508.11Z" transform="translate(-315.65 -496.91)"/>
    <path class="cls-2" d="M508.11,2101.35a2.7,2.7,0,0,1-2.7-2.7v-86.57c0-11.69-2.9-20.73-8.61-26.88s-13.43-9.18-23.49-9.18c-10.25,0-18.08,3-23.92,9.2s-8.74,15.18-8.74,26.86v86.57a2.7,2.7,0,0,1-2.7,2.7H398.34a2.7,2.7,0,0,1-2.7-2.7V1941.92a2.7,2.7,0,0,1,2.7-2.7H438a2.7,2.7,0,0,1,2.7,2.7v12.42A58.89,58.89,0,0,1,457,1943a65.65,65.65,0,0,1,28.17-6c19.33,0,35.21,6.22,47.19,18.49s18,29.5,18,51.25v91.95a2.7,2.7,0,0,1-2.7,2.7Z" transform="translate(-315.65 -496.91)"/>
    <path class="cls-2" d="M508.11,2100a1.34,1.34,0,0,1-1.35-1.33h0v-86.59c0-12-3-21.39-9-27.8s-14.17-9.61-24.48-9.61c-10.49,0-18.87,3.24-24.9,9.62s-9.11,15.75-9.11,27.79v86.57a1.34,1.34,0,0,1-1.33,1.35H398.31a1.34,1.34,0,0,1-1.35-1.33h0V1941.92a1.34,1.34,0,0,1,1.33-1.35h39.63a1.34,1.34,0,0,1,1.35,1.33h0v15.82a56.88,56.88,0,0,1,18.3-13.49,64.42,64.42,0,0,1,27.6-5.92c18.95,0,34.51,6.08,46.22,18.08S549,1985.32,549,2006.7v92a1.33,1.33,0,0,1-1.33,1.35h-39.6Z" transform="translate(-315.65 -496.91)"/>
    <path class="cls-2" d="M530.46,1957.34q17.25,17.69,17.25,49.36v92h-39.6v-86.57q0-18.66-9.34-28.72t-25.46-10q-16.41,0-25.88,10T438,2012.08v86.57H398.34V1941.92H438v19.52a54.68,54.68,0,0,1,20.23-16,62.74,62.74,0,0,1,27-5.79Q513.22,1939.67,530.46,1957.34Z" transform="translate(-315.65 -496.91)"/>
    <path class="cls-2" d="M641.64,2102.7c-35.91,0-54.12-17.73-54.12-52.71V1978.5H572.9a4,4,0,0,1-4-4V1942a4,4,0,0,1,4-4h14.62v-34.78a4,4,0,0,1,4-4h39.89a4,4,0,0,1,4,4v34.71h31a4,4,0,0,1,4,4v32.53a4,4,0,0,1-4,4h-31v71.77c0,4.09.84,6.94,2.52,8.49s5.23,2.46,10.12,2.46h18.39a4,4,0,0,1,4,4v33.43a4,4,0,0,1-4,4Z" transform="translate(-315.65 -496.91)"/>
    <path class="cls-2" d="M641.64,2101.35c-35,0-52.77-17.28-52.77-51.36v-72.8h-16a2.7,2.7,0,0,1-2.7-2.7V1942a2.7,2.7,0,0,1,2.7-2.7h16v-36.07a2.67,2.67,0,0,1,2.67-2.69h39.92a2.67,2.67,0,0,1,2.7,2.66v0h0v36h32.38a2.7,2.7,0,0,1,2.7,2.7v32.53a2.7,2.7,0,0,1-2.7,2.7H634.16v73.09c0,4.48,1,7.67,3,9.48s5.73,2.82,11,2.82H666.5a2.7,2.7,0,0,1,2.7,2.7v33.38a2.7,2.7,0,0,1-2.7,2.7Z" transform="translate(-315.65 -496.91)"/>
    <path class="cls-2" d="M641.64,2100c-34.12,0-51.42-16.83-51.42-50v-74.19H572.9a1.33,1.33,0,0,1-1.35-1.33h0v-32.55a1.33,1.33,0,0,1,1.33-1.35h17.34v-37.39a1.36,1.36,0,0,1,1.35-1.35h39.89a1.36,1.36,0,0,1,1.35,1.35v37.41h33.73a1.33,1.33,0,0,1,1.35,1.33v32.55a1.33,1.33,0,0,1-1.33,1.35H632.81v74.47c0,4.87,1.14,8.39,3.38,10.47s6.3,3.18,12,3.18h18.39a1.33,1.33,0,0,1,1.35,1.33v0h0v33.38a1.33,1.33,0,0,1-1.33,1.35h0Z" transform="translate(-315.65 -496.91)"/>
    <path class="cls-2" d="M631.46,1974.45v75.82c0,5.28,1.27,9.11,3.82,11.46s6.84,3.53,12.87,3.54h18.39v33.38h-24.9q-50.07,0-50.07-48.66v-75.54H572.9v-32.53h18.67v-38.73h39.89V1942h35.08v32.53Z" transform="translate(-315.65 -496.91)"/>
    <path class="cls-2" d="M763.57,2105.2c-15.72,0-30-3.55-42.57-10.55a74.78,74.78,0,0,1-29.58-30c-7-12.79-10.55-27.72-10.55-44.37,0-16.84,3.49-31.85,10.4-44.65a73.16,73.16,0,0,1,29.32-29.9c12.43-6.91,26.9-10.42,43-10.42,15.51,0,29.63,3.41,42,10.11a71.94,71.94,0,0,1,29,28.9c6.82,12.34,10.27,26.66,10.27,42.55a98,98,0,0,1-1.19,16,4,4,0,0,1-4,3.39h-110c1.4,8.16,4.77,14.73,10,19.56,6.26,5.75,13.78,8.55,23,8.55,13.16,0,22.24-5.46,27.77-16.69a4,4,0,0,1,3.63-2.26H836.8a4,4,0,0,1,4.07,3.93h0a4.32,4.32,0,0,1-.19,1.28,75.73,75.73,0,0,1-27.46,39.26C799.78,2100.06,783.06,2105.2,763.57,2105.2Zm31.86-103.72a26.38,26.38,0,0,0-9.31-17.34c-6.39-5.46-14.35-8.23-23.68-8.23-8.87,0-16.08,2.58-22.06,7.89-4.93,4.38-8.33,10.32-10.11,17.68Z" transform="translate(-315.65 -496.91)"/>
    <path class="cls-2" d="M763.57,2103.89c-15.48,0-29.59-3.49-41.91-10.38A73.5,73.5,0,0,1,692.6,2064c-6.89-12.6-10.38-27.31-10.38-43.73,0-16.61,3.44-31.41,10.23-44a72.06,72.06,0,0,1,28.79-29.37c12.24-6.79,26.48-10.24,42.33-10.24,15.28,0,29.18,3.35,41.32,10A70.69,70.69,0,0,1,833.41,1975c6.7,12.13,10.1,26.23,10.1,41.89a96.28,96.28,0,0,1-1.17,15.73,2.71,2.71,0,0,1-2.66,2.26H728.11c1.28,9.19,4.87,16.55,10.7,21.9,6.51,6,14.34,8.91,23.91,8.91,13.72,0,23.2-5.71,29-17.45a2.71,2.71,0,0,1,2.42-1.5h42.73a2.7,2.7,0,0,1,2.7,2.68,2.66,2.66,0,0,1-.12.79,74.27,74.27,0,0,1-27,38.58C799.2,2098.81,782.76,2103.89,763.57,2103.89Zm33.37-101a28,28,0,0,0-10-19.72c-6.63-5.67-14.89-8.55-24.55-8.55-9.21,0-16.72,2.7-23,8.23-5.52,4.9-9.17,11.63-10.89,20Z" transform="translate(-315.65 -496.91)"/>
    <path class="cls-2" d="M763.57,2102.54c-15.25,0-29.13-3.43-41.25-10.21a72.13,72.13,0,0,1-28.53-29c-6.79-12.4-10.22-26.89-10.22-43.08,0-16.38,3.39-31,10.07-43.37a70.75,70.75,0,0,1,28.26-28.83c12-6.68,26-10.07,41.67-10.07,15,0,28.74,3.29,40.68,9.79a69.42,69.42,0,0,1,28,27.83c6.59,11.93,9.93,25.81,9.93,41.25a97,97,0,0,1-1.15,15.5,1.35,1.35,0,0,1-1.33,1.13H726.58c1.12,10.23,4.93,18.38,11.31,24.25,6.69,6.14,15,9.26,24.83,9.26,14.29,0,24.16-5.95,30.19-18.2a1.36,1.36,0,0,1,1.21-.75h42.73a1.36,1.36,0,0,1,1.08.54,1.3,1.3,0,0,1,.21,1.19,72.88,72.88,0,0,1-26.51,37.89C798.63,2097.55,782.46,2102.54,763.57,2102.54Zm34.81-98.35c-.47-9.1-4-16.53-10.51-22.1-6.88-5.88-15.44-8.87-25.43-8.87-9.42,0-17.45,2.89-23.86,8.58-6.09,5.4-10,12.93-11.62,22.39Z" transform="translate(-315.65 -496.91)"/>
    <path class="cls-2" d="M839.68,2032.2H725.06q1.41,17,11.88,26.59t25.74,9.62q22.08,0,31.4-18.95h42.73a71.35,71.35,0,0,1-26,37.2q-19.21,14.53-47.23,14.54-22.64,0-40.59-10a70.55,70.55,0,0,1-28-28.43q-10-18.37-10-42.43,0-24.35,9.91-42.73a69.16,69.16,0,0,1,27.72-28.29q17.82-9.88,41-9.9,22.35,0,40,9.62a67.74,67.74,0,0,1,27.47,27.25q9.75,17.7,9.76,40.59A94.7,94.7,0,0,1,839.68,2032.2Zm-39.9-26.6q-.28-15.28-11-24.47t-26.31-9.19q-14.72,0-24.75,8.91t-12.31,24.75Z" transform="translate(-315.65 -496.91)"/>
    <rect class="cls-2" x="549.96" y="1388.33" width="47.7" height="217.45" rx="4.05"/>
    <rect class="cls-2" x="551.31" y="1389.68" width="45" height="214.76" rx="2.7"/>
    <rect class="cls-2" x="552.66" y="1391.03" width="42.3" height="212.06" rx="1.35"/>
    <path class="cls-2" d="M909.27,1889.29v209.36H869.66V1889.29Z" transform="translate(-315.65 -496.91)"/>
    <rect class="cls-2" x="628.62" y="1388.33" width="47.7" height="217.45" rx="4.05"/>
    <rect class="cls-2" x="629.97" y="1389.68" width="45" height="214.76" rx="2.7"/>
    <rect class="cls-2" x="631.32" y="1391.03" width="42.3" height="212.06" rx="1.35"/>
    <path class="cls-2" d="M987.92,1889.29v209.36h-39.6V1889.29Z" transform="translate(-315.65 -496.91)"/>
    <path class="cls-2" d="M1027,2102.7a4,4,0,0,1-4.05-3.95v-.1h0V1941.92a4,4,0,0,1,4-4h39.66a4.06,4.06,0,0,1,4,4v156.73a4.06,4.06,0,0,1-4,4Zm20.12-175.4a28.26,28.26,0,0,1-20.2-7.78,27.3,27.3,0,0,1-.36-38.59l.36-.36c5.38-5.16,12.18-7.77,20.2-7.77s14.81,2.61,20.21,7.77a27.28,27.28,0,0,1,.39,38.56h0l-.39.39A28.3,28.3,0,0,1,1047.08,1927.3Z" transform="translate(-315.65 -496.91)"/>
    <path class="cls-2" d="M1027,2101.35a2.7,2.7,0,0,1-2.7-2.7V1941.92a2.7,2.7,0,0,1,2.7-2.7h39.61a2.7,2.7,0,0,1,2.7,2.7v156.73a2.7,2.7,0,0,1-2.7,2.7Zm20.12-175.4c-7.67,0-14.15-2.49-19.27-7.4a25.92,25.92,0,0,1-.36-36.65l.36-.36c5.12-4.92,11.6-7.4,19.26-7.4a26.92,26.92,0,0,1,19.28,7.39,25.93,25.93,0,0,1,.34,36.66v0l-.33.33A26.94,26.94,0,0,1,1047.08,1926Z" transform="translate(-315.65 -496.91)"/>
    <path class="cls-2" d="M1027,2100a1.34,1.34,0,0,1-1.35-1.33h0V1941.92a1.34,1.34,0,0,1,1.33-1.35h39.63a1.34,1.34,0,0,1,1.35,1.33h0v156.75a1.34,1.34,0,0,1-1.33,1.35H1027Zm20.12-175.4a25.55,25.55,0,0,1-18.33-7,24.58,24.58,0,0,1-.27-34.74l.27-.27a27.43,27.43,0,0,1,36.67,0,24.58,24.58,0,0,1,.27,34.74l-.27.27A25.58,25.58,0,0,1,1047.08,1924.6Z" transform="translate(-315.65 -496.91)"/>
    <path class="cls-2" d="M1029.64,1916.6a23.24,23.24,0,0,1-.25-32.86l.25-.25q6.93-6.63,17.4-6.65t17.41,6.65a23.24,23.24,0,0,1,.25,32.86l-.25.25q-6.95,6.63-17.41,6.65T1029.64,1916.6Zm36.93,25.32v156.73H1027V1941.92Z" transform="translate(-315.65 -496.91)"/>
    <path class="cls-2" d="M1181.14,2179.94c-23,0-42.24-5.5-57.12-16.34-15.14-11-23.83-26.27-25.83-45.29a4.06,4.06,0,0,1,3.6-4.45h39.72a4.08,4.08,0,0,1,3.89,2.92c1.8,6.23,5.62,11.06,11.67,14.79,6.2,3.83,13.91,5.77,22.91,5.77,10.38,0,18.85-3.1,25.21-9.2s9.51-15.6,9.51-28.34v-13.36a70.58,70.58,0,0,1-15.09,11c-9.52,5.21-20.51,7.85-32.64,7.85a71.68,71.68,0,0,1-38.35-10.79,75.23,75.23,0,0,1-27.35-30.31c-6.58-12.86-9.92-27.81-9.92-44.43,0-16.42,3.34-31.23,9.92-44s15.8-22.93,27.24-29.89a72.76,72.76,0,0,1,38.46-10.5c12.29,0,23.3,2.49,32.71,7.39a65.72,65.72,0,0,1,15,10.63V1942a4,4,0,0,1,4-4h39.89a4.05,4.05,0,0,1,4,4v157.86c0,15.09-3.1,28.8-9.21,40.74a69.48,69.48,0,0,1-27.9,28.84C1213.33,2176.38,1198.38,2179.94,1181.14,2179.94Zm-4-201.72a35.7,35.7,0,0,0-32,19c-3.51,6.23-5.28,13.8-5.28,22.49s1.78,16.38,5.3,22.81a37.81,37.81,0,0,0,13.8,14.73,34.91,34.91,0,0,0,18.15,5.09,37.13,37.13,0,0,0,18.65-5,36.19,36.19,0,0,0,13.74-14.27c3.42-6.25,5.16-13.93,5.16-22.81s-1.74-16.57-5.16-22.82a36.19,36.19,0,0,0-13.74-14.27,37,37,0,0,0-18.58-5Z" transform="translate(-315.65 -496.91)"/>
    <path class="cls-2" d="M1181.14,2178.59c-22.73,0-41.68-5.41-56.33-16.08-14.82-10.8-23.32-25.72-25.28-44.34a2.69,2.69,0,0,1,2.34-3h39.67a2.67,2.67,0,0,1,2.59,2c1.9,6.56,5.91,11.65,12.26,15.56s14.36,6,23.62,6c10.74,0,19.53-3.23,26.15-9.58s9.92-16.19,9.92-29.31V2083.2a67.06,67.06,0,0,1-17.08,13.1c-9.33,5.1-20.1,7.68-32,7.68a70.4,70.4,0,0,1-37.64-10.58,74,74,0,0,1-26.86-29.78c-6.49-12.67-9.77-27.41-9.77-43.82,0-16.2,3.29-30.8,9.77-43.38s15.52-22.53,26.74-29.36a71.46,71.46,0,0,1,37.76-10.3c12.07,0,22.87,2.44,32.09,7.24a62.5,62.5,0,0,1,17,12.72V1942a2.68,2.68,0,0,1,2.66-2.7h39.92a2.7,2.7,0,0,1,2.7,2.7v157.86c0,14.88-3,28.38-9.06,40.13a68.24,68.24,0,0,1-27.37,28.28C1212.87,2175.09,1198.1,2178.59,1181.14,2178.59Zm-4-201.72a37,37,0,0,0-33.13,19.69c-3.62,6.44-5.45,14.23-5.45,23.14s1.84,16.84,5.47,23.47a39.29,39.29,0,0,0,14.29,15.24,36.31,36.31,0,0,0,18.84,5.28,38.53,38.53,0,0,0,19.32-5.16,37.56,37.56,0,0,0,14.25-14.8c3.53-6.45,5.33-14.34,5.33-23.45s-1.8-17-5.33-23.47a37.53,37.53,0,0,0-14.25-14.79,38.35,38.35,0,0,0-19.3-5.15Z" transform="translate(-315.65 -496.91)"/>
    <path class="cls-2" d="M1181.14,2177.21c-22.44,0-41.12-5.32-55.53-15.82s-22.82-25.17-24.74-43.39a1.42,1.42,0,0,1,.34-1,1.36,1.36,0,0,1,1-.44h39.32a1.33,1.33,0,0,1,1.29,1,28.11,28.11,0,0,0,12.85,16.34c6.63,4.09,14.82,6.17,24.33,6.17,11.1,0,20.2-3.35,27.08-10s10.34-16.79,10.34-30.29V2079.5a63.49,63.49,0,0,1-19.08,15.52c-9.13,5-19.68,7.52-31.35,7.52a68.9,68.9,0,0,1-36.9-10.34,72.55,72.55,0,0,1-26.38-29.25c-6.39-12.48-9.62-27-9.62-43.19,0-16,3.24-30.39,9.62-42.77s15.23-22.13,26.24-28.83a70.14,70.14,0,0,1,37.06-10.1c11.85,0,22.44,2.39,31.46,7.09a59.76,59.76,0,0,1,19,15.12V1942a1.33,1.33,0,0,1,1.33-1.35h39.9a1.33,1.33,0,0,1,1.35,1.33h0v157.88c0,14.66-3,28-8.92,39.51a66.73,66.73,0,0,1-26.84,27.73C1212.4,2173.8,1197.9,2177.21,1181.14,2177.21Zm-4-201.72a38.42,38.42,0,0,0-34.32,20.38c-3.74,6.65-5.63,14.66-5.63,23.82s1.89,17.27,5.63,24.11a40.65,40.65,0,0,0,14.79,15.75,37.61,37.61,0,0,0,19.53,5.47,39.69,39.69,0,0,0,20-5.34,38.83,38.83,0,0,0,14.76-15.32c3.65-6.65,5.5-14.76,5.5-24.1s-1.85-17.46-5.5-24.11a38.76,38.76,0,0,0-14.76-15.32,39.69,39.69,0,0,0-20-5.31Z" transform="translate(-315.65 -496.91)"/>
    <path class="cls-2" d="M1197.84,1946.3a56.83,56.83,0,0,1,20.93,18V1942h39.89v157.86q0,21.78-8.77,38.9a65,65,0,0,1-26.31,27.16q-17.55,10-42.44,10-33.36,0-54.74-15.56t-24.18-42.44h39.32q3.11,10.74,13.43,17.11t25,6.37q17.27,0,28-10.33t10.74-31.26v-24.33a60.16,60.16,0,0,1-21.07,18.39q-13.44,7.35-30.7,7.35a67.25,67.25,0,0,1-36.21-10.18q-16.41-10.18-25.89-28.71t-9.47-42.58q0-23.78,9.47-42.16t25.75-28.29a68.57,68.57,0,0,1,36.35-9.9Q1184.53,1939.36,1197.84,1946.3Zm15.28,49.23a40,40,0,0,0-15.28-15.85,40.83,40.83,0,0,0-20.66-5.51,39.73,39.73,0,0,0-35.5,21.07q-5.81,10.35-5.8,24.48t5.8,24.76a41.74,41.74,0,0,0,15.27,16.26,38.83,38.83,0,0,0,20.23,5.66,40.84,40.84,0,0,0,20.66-5.52,39.94,39.94,0,0,0,15.28-15.84q5.64-10.32,5.65-24.76t-5.67-24.75Z" transform="translate(-315.65 -496.91)"/>
    <path class="cls-2" d="M1365.88,2105.2c-15.71,0-30-3.55-42.56-10.55a74.83,74.83,0,0,1-29.6-30c-7-12.79-10.54-27.72-10.54-44.37,0-16.84,3.5-31.85,10.39-44.65a73.25,73.25,0,0,1,29.33-29.9c12.44-6.91,26.9-10.42,43-10.42,15.51,0,29.63,3.41,42,10.11a72.1,72.1,0,0,1,29,28.9c6.82,12.34,10.27,26.66,10.27,42.55a100.22,100.22,0,0,1-1.18,16,4,4,0,0,1-4,3.39H1332c1.41,8.16,4.78,14.73,10,19.56,6.26,5.75,13.78,8.55,23,8.55,13.15,0,22.23-5.46,27.76-16.69a4,4,0,0,1,3.64-2.26h42.74a4,4,0,0,1,4.07,3.93h0a4.67,4.67,0,0,1-.19,1.28,75.61,75.61,0,0,1-27.47,39.26C1402.11,2100.06,1385.37,2105.2,1365.88,2105.2Zm31.87-103.72a26.37,26.37,0,0,0-9.32-17.34c-6.38-5.46-14.35-8.23-23.68-8.23-8.86,0-16.08,2.58-22.06,7.89-4.93,4.38-8.32,10.32-10.11,17.68Z" transform="translate(-315.65 -496.91)"/>
    <path class="cls-2" d="M1365.88,2103.89c-15.48,0-29.58-3.49-41.91-10.38a73.57,73.57,0,0,1-29-29.49c-6.89-12.6-10.38-27.31-10.38-43.73,0-16.61,3.44-31.41,10.23-44a72,72,0,0,1,28.8-29.37c12.23-6.79,26.47-10.24,42.32-10.24,15.28,0,29.19,3.35,41.32,10a70.56,70.56,0,0,1,28.52,28.37c6.71,12.13,10.1,26.23,10.1,41.89a98.54,98.54,0,0,1-1.16,15.73,2.71,2.71,0,0,1-2.67,2.26H1330.43c1.27,9.19,4.86,16.55,10.69,21.9,6.52,6,14.34,8.91,23.92,8.91,13.72,0,23.19-5.71,29-17.45a2.71,2.71,0,0,1,2.43-1.5h42.65a2.7,2.7,0,0,1,2.7,2.7,3.33,3.33,0,0,1-.11.77,74.27,74.27,0,0,1-27,38.58C1401.51,2098.81,1385.11,2103.89,1365.88,2103.89Zm33.37-101a28,28,0,0,0-9.94-19.72c-6.64-5.67-14.9-8.55-24.56-8.55-9.21,0-16.72,2.7-23,8.23-5.51,4.9-9.17,11.63-10.89,20Z" transform="translate(-315.65 -496.91)"/>
    <path class="cls-2" d="M1365.88,2102.54c-15.25,0-29.13-3.43-41.25-10.21a72.34,72.34,0,0,1-28.54-29c-6.77-12.4-10.21-26.89-10.21-43.08,0-16.38,3.39-31,10.07-43.37a70.87,70.87,0,0,1,28.26-28.83c12-6.68,26-10.07,41.67-10.07,15.06,0,28.74,3.29,40.68,9.79a69.4,69.4,0,0,1,28,27.83c6.6,11.93,9.94,25.81,9.94,41.25a95.78,95.78,0,0,1-1.15,15.5,1.35,1.35,0,0,1-1.33,1.13H1328.9c1.12,10.23,4.92,18.38,11.31,24.25,6.68,6.14,15,9.26,24.83,9.26,14.28,0,24.16-5.95,30.19-18.2a1.36,1.36,0,0,1,1.21-.75h42.68a1.35,1.35,0,0,1,1.36,1.32h0a1.4,1.4,0,0,1-.06.41,73,73,0,0,1-26.52,37.89C1400.94,2097.55,1384.77,2102.54,1365.88,2102.54Zm34.82-98.32c-.48-9.1-4-16.53-10.51-22.1-6.89-5.88-15.45-8.87-25.44-8.87-9.42,0-17.45,2.89-23.85,8.58-6.1,5.4-10,12.93-11.63,22.39Z" transform="translate(-315.65 -496.91)"/>
    <path class="cls-2" d="M1442,2032.2H1327.41q1.41,17,11.88,26.59t25.75,9.62q22.07,0,31.4-18.95h42.68a71.35,71.35,0,0,1-26,37.2q-19.23,14.57-47.24,14.56-22.63,0-40.6-10a70.64,70.64,0,0,1-28-28.43q-10-18.37-10-42.43,0-24.34,9.9-42.73a69.27,69.27,0,0,1,27.74-28.29q17.82-9.88,41-9.9,22.33,0,40,9.62a67.55,67.55,0,0,1,27.44,27.3q9.77,17.69,9.77,40.6A94.91,94.91,0,0,1,1442,2032.2Zm-39.88-26.63q-.28-15.28-11-24.47t-26.31-9.19q-14.7,0-24.75,8.91t-12.3,24.75Z" transform="translate(-315.65 -496.91)"/>
    <path class="cls-2" d="M1581.75,2102.7a4,4,0,0,1-4-4v-86.62c0-11.34-2.78-20.07-8.25-26s-12.85-8.75-22.51-8.75c-9.86,0-17.37,2.87-22.94,8.77s-8.37,14.61-8.37,25.94v86.57a4,4,0,0,1-4,4h-39.56a4,4,0,0,1-4-4V1941.92a4,4,0,0,1,4-4h39.6a4.05,4.05,0,0,1,4,4v9.32a61.13,61.13,0,0,1,14.45-9.45,67.09,67.09,0,0,1,28.74-6.18c19.72,0,35.93,6.36,48.17,18.9s18.41,30.08,18.41,52.19v92a4,4,0,0,1-4,4Z" transform="translate(-315.65 -496.91)"/>
    <path class="cls-2" d="M1581.75,2101.35a2.7,2.7,0,0,1-2.7-2.7v-86.57c0-11.69-2.9-20.73-8.62-26.88S1557,1976,1546.94,1976c-10.25,0-18.08,3-23.92,9.2s-8.74,15.18-8.74,26.86v86.57a2.7,2.7,0,0,1-2.7,2.7H1472a2.7,2.7,0,0,1-2.7-2.7V1941.92a2.7,2.7,0,0,1,2.7-2.7h39.6a2.7,2.7,0,0,1,2.7,2.7v12.42a59,59,0,0,1,16.38-11.33,65.64,65.64,0,0,1,28.16-6c19.35,0,35.22,6.22,47.21,18.49s18,29.5,18,51.25v91.95a2.7,2.7,0,0,1-2.7,2.7Z" transform="translate(-315.65 -496.91)"/>
    <path class="cls-2" d="M1581.75,2100a1.33,1.33,0,0,1-1.35-1.33h0v-86.59c0-12-3-21.39-9-27.8s-14.17-9.61-24.48-9.61c-10.5,0-18.88,3.24-24.9,9.62s-9.11,15.75-9.11,27.79v86.57a1.33,1.33,0,0,1-1.33,1.35H1472a1.33,1.33,0,0,1-1.35-1.33h0V1941.92a1.33,1.33,0,0,1,1.33-1.35h39.62a1.33,1.33,0,0,1,1.35,1.33h0v15.82a57,57,0,0,1,18.3-13.49,64.41,64.41,0,0,1,27.59-5.92c19,0,34.52,6.08,46.24,18.08s17.64,28.93,17.64,50.31v92a1.33,1.33,0,0,1-1.33,1.35h-39.6Z" transform="translate(-315.65 -496.91)"/>
    <path class="cls-2" d="M1604.13,1957.34q17.26,17.69,17.26,49.36v92h-39.6v-86.57q0-18.66-9.34-28.72t-25.47-10q-16.41,0-25.88,10t-9.48,28.72v86.57H1472V1941.92h39.6v19.52a54.76,54.76,0,0,1,20.23-16,62.49,62.49,0,0,1,27-5.79Q1586.84,1939.67,1604.13,1957.34Z" transform="translate(-315.65 -496.91)"/>
    <path class="cls-2" d="M1715.28,2102.7c-35.92,0-54.13-17.73-54.13-52.71V1978.5h-14.62a4,4,0,0,1-4-4V1942a4,4,0,0,1,4-4h14.65v-34.78a4,4,0,0,1,4-4h40a4,4,0,0,1,4,4v34.71h31a4.05,4.05,0,0,1,4,4v32.53a4.05,4.05,0,0,1-4,4h-31v71.77c0,4.09.85,6.94,2.52,8.49s5.24,2.46,10.12,2.46h18.36a4.06,4.06,0,0,1,4,4v33.38a4.08,4.08,0,0,1-4,4Z" transform="translate(-315.65 -496.91)"/>
    <path class="cls-2" d="M1715.28,2101.35c-35,0-52.78-17.28-52.78-51.36v-72.8h-16a2.7,2.7,0,0,1-2.7-2.7V1942a2.7,2.7,0,0,1,2.7-2.7h16v-36.07a2.68,2.68,0,0,1,2.67-2.69h40a2.67,2.67,0,0,1,2.7,2.66v0h0v36h32.3a2.7,2.7,0,0,1,2.7,2.7v32.53a2.7,2.7,0,0,1-2.7,2.7h-32.38v73.09c0,4.48,1,7.67,3,9.48s5.74,2.82,11,2.82h18.38a2.7,2.7,0,0,1,2.7,2.7v33.38a2.7,2.7,0,0,1-2.7,2.7Z" transform="translate(-315.65 -496.91)"/>
    <path class="cls-2" d="M1715.28,2100c-34.13,0-51.43-16.83-51.43-50v-74.19h-17.32a1.34,1.34,0,0,1-1.35-1.33h0v-32.55a1.34,1.34,0,0,1,1.33-1.35h17.34v-37.39a1.34,1.34,0,0,1,1.33-1.35h40a1.34,1.34,0,0,1,1.35,1.33v37.43h33.65a1.34,1.34,0,0,1,1.35,1.33h0v32.55a1.34,1.34,0,0,1-1.33,1.35h-33.72v74.47c0,4.87,1.14,8.39,3.39,10.47s6.29,3.18,12,3.18h18.31a1.34,1.34,0,0,1,1.35,1.33h0v33.4a1.34,1.34,0,0,1-1.33,1.35h0Z" transform="translate(-315.65 -496.91)"/>
    <path class="cls-2" d="M1705.14,1974.45v75.82c0,5.28,1.27,9.11,3.82,11.46s6.83,3.53,12.87,3.54h18.31v33.38h-24.89q-50.09,0-50.08-48.66v-75.54h-18.64v-32.53h18.67v-38.73h39.94V1942h35v32.53Z" transform="translate(-315.65 -496.91)"/>
    <path class="cls-2" d="M1866.91,2104.68c-8.22,0-15.11-2.62-20.48-7.78a27.25,27.25,0,0,1-.39-38.55h0l.39-.39c5.38-5.16,12.27-7.77,20.48-7.77,8,0,14.79,2.62,20.09,7.8a27.63,27.63,0,0,1,0,38.89C1881.71,2102.05,1875,2104.68,1866.91,2104.68Zm-17.54-66.2a4,4,0,0,1-4-3.9l-4.8-136.65a4,4,0,0,1,3.8-4.19h42.92a4,4,0,0,1,4,4v.18l-4.52,136.65a4,4,0,0,1-4,3.91Z" transform="translate(-315.65 -496.91)"/>
    <path class="cls-2" d="M1866.91,2103.33c-7.86,0-14.43-2.49-19.55-7.4a25.91,25.91,0,0,1-.35-36.65l.35-.35c5.12-4.91,11.7-7.4,19.55-7.4,7.67,0,14.11,2.49,19.14,7.41a26.27,26.27,0,0,1,0,37C1881,2100.83,1874.59,2103.33,1866.91,2103.33Zm-17.54-66.2a2.69,2.69,0,0,1-2.7-2.6l-4.81-136.65a2.69,2.69,0,0,1,2.6-2.79h42.82a2.7,2.7,0,0,1,2.7,2.7v.09l-4.53,136.64a2.7,2.7,0,0,1-2.7,2.61Z" transform="translate(-315.65 -496.91)"/>
    <path class="cls-2" d="M1866.91,2102c-7.5,0-13.76-2.36-18.62-7a24.58,24.58,0,0,1-.29-34.76l.29-.29c4.86-4.66,11.12-7,18.61-7,7.31,0,13.43,2.36,18.2,7a24.92,24.92,0,0,1,0,35C1880.34,2099.61,1874.22,2102,1866.91,2102Zm-17.54-66.2a1.35,1.35,0,0,1-1.35-1.3l-4.81-136.64a1.42,1.42,0,0,1,.38-1,1.3,1.3,0,0,1,1-.41h42.72a1.33,1.33,0,0,1,1.35,1.33v0h0l-4.51,136.7a1.33,1.33,0,0,1-1.35,1.3Z" transform="translate(-315.65 -496.91)"/>
    <path class="cls-2" d="M1849.23,2094a23.23,23.23,0,0,1-.25-32.85l.25-.25q6.93-6.63,17.68-6.64,10.46,0,17.26,6.64a23.59,23.59,0,0,1,0,33.1q-6.8,6.64-17.26,6.65Q1856.16,2100.63,1849.23,2094Zm38-196.19-4.53,136.64h-33.38l-4.81-136.64Z" transform="translate(-315.65 -496.91)"/>
    <path class="cls-2" d="M2003.55,2102.7a4.07,4.07,0,0,1-4-4V1900.9a4,4,0,0,1,4-4h114.62a4,4,0,0,1,4,4v32.29a4.07,4.07,0,0,1-4,4h-71v41.41h62.44a4,4,0,0,1,4.05,4V2014a4,4,0,0,1-4,4h-62.49v44.24h71a4.05,4.05,0,0,1,4,4v32.25a4.07,4.07,0,0,1-4,4Z" transform="translate(-315.65 -496.91)"/>
    <path class="cls-2" d="M2003.55,2101.35a2.7,2.7,0,0,1-2.7-2.7V1900.9a2.7,2.7,0,0,1,2.7-2.7h114.62a2.7,2.7,0,0,1,2.7,2.7v32.29a2.7,2.7,0,0,1-2.7,2.7h-72.28V1980h63.79a2.7,2.7,0,0,1,2.7,2.7v31.4a2.68,2.68,0,0,1-2.67,2.69h-63.82v46.95h72.28a2.7,2.7,0,0,1,2.7,2.7v32.25a2.7,2.7,0,0,1-2.7,2.7Z" transform="translate(-315.65 -496.91)"/>
    <path class="cls-2" d="M2003.55,2100a1.34,1.34,0,0,1-1.35-1.33h0V1900.9a1.33,1.33,0,0,1,1.33-1.35h114.64a1.34,1.34,0,0,1,1.35,1.33v0h0v32.29a1.37,1.37,0,0,1-1.35,1.35h-73.63v46.81h65.14a1.35,1.35,0,0,1,1.35,1.33h0v31.42a1.34,1.34,0,0,1-1.33,1.35h-65.16v49.64h73.63a1.34,1.34,0,0,1,1.35,1.33v0h0v32.25a1.33,1.33,0,0,1-1.33,1.35h0Z" transform="translate(-315.65 -496.91)"/>
    <path class="cls-2" d="M2043.16,1933.19v49.51h66.49v31.4h-66.49v52.34h75v32.25H2003.55V1900.9h114.62v32.29Z" transform="translate(-315.65 -496.91)"/>
    <path class="cls-2" d="M2263.82,2102.7a4,4,0,0,1-4-4v-86.62c0-11.34-2.78-20.07-8.26-26s-12.83-8.75-22.49-8.75c-9.86,0-17.37,2.87-22.94,8.77s-8.37,14.61-8.37,25.94v86.57a4.07,4.07,0,0,1-4,4h-39.61a4,4,0,0,1-4-4V1941.92a4.05,4.05,0,0,1,4-4h39.61a4.08,4.08,0,0,1,4,4v9.32a60.93,60.93,0,0,1,14.45-9.45,67.06,67.06,0,0,1,28.74-6.18c19.71,0,35.91,6.36,48.16,18.9s18.41,30.08,18.41,52.19v92a4.07,4.07,0,0,1-4.05,4Z" transform="translate(-315.65 -496.91)"/>
    <path class="cls-2" d="M2263.82,2101.35a2.68,2.68,0,0,1-2.69-2.67v0h0v-86.57c0-11.69-2.9-20.73-8.62-26.88S2239.08,1976,2229,1976c-10.26,0-18.08,3-23.92,9.2s-8.74,15.18-8.74,26.86v86.57a2.7,2.7,0,0,1-2.7,2.7h-39.61a2.7,2.7,0,0,1-2.7-2.7V1941.92a2.7,2.7,0,0,1,2.7-2.7h39.61a2.7,2.7,0,0,1,2.7,2.7v12.42a58.79,58.79,0,0,1,16.37-11.33,65.65,65.65,0,0,1,28.17-6c19.34,0,35.21,6.22,47.19,18.49s18,29.51,18,51.25v91.95a2.7,2.7,0,0,1-2.7,2.7Z" transform="translate(-315.65 -496.91)"/>
    <path class="cls-2" d="M2263.82,2100a1.34,1.34,0,0,1-1.35-1.33v0h0v-86.57c0-12-3-21.39-9-27.8s-14.17-9.61-24.47-9.61c-10.5,0-18.88,3.24-24.9,9.62S2195,2000,2195,2012.08v86.57a1.34,1.34,0,0,1-1.33,1.35H2154a1.34,1.34,0,0,1-1.35-1.33h0V1941.92a1.34,1.34,0,0,1,1.33-1.35h39.63a1.34,1.34,0,0,1,1.35,1.33v0h0v15.8a56.88,56.88,0,0,1,18.3-13.49,64.37,64.37,0,0,1,27.59-5.92c19,0,34.51,6.08,46.23,18.08s17.64,28.93,17.64,50.31v92a1.33,1.33,0,0,1-1.33,1.35h-39.6Z" transform="translate(-315.65 -496.91)"/>
    <path class="cls-2" d="M2286.18,1957.34q17.25,17.69,17.26,49.36v92h-39.61v-86.57q0-18.66-9.33-28.72t-25.46-10q-16.41,0-25.89,10t-9.47,28.72v86.57h-39.61V1941.92h39.61v19.52a54.73,54.73,0,0,1,20.22-16,62.74,62.74,0,0,1,27-5.79Q2268.92,1939.67,2286.18,1957.34Z" transform="translate(-315.65 -496.91)"/>
    <path class="cls-2" d="M2416.59,2179.94c-23,0-42.24-5.5-57.12-16.34-15.14-11-23.83-26.28-25.83-45.29a4.05,4.05,0,0,1,3.6-4.45H2377a4.08,4.08,0,0,1,3.89,2.92c1.8,6.23,5.62,11.06,11.67,14.79s13.91,5.77,22.91,5.77c10.37,0,18.85-3.1,25.2-9.2s9.52-15.6,9.52-28.34v-13.36a70.39,70.39,0,0,1-15.1,11c-9.52,5.21-20.5,7.85-32.63,7.85a71.66,71.66,0,0,1-38.35-10.79,75.23,75.23,0,0,1-27.35-30.31c-6.58-12.86-9.92-27.81-9.92-44.43,0-16.42,3.34-31.23,9.93-44s15.79-22.93,27.23-29.89a72.76,72.76,0,0,1,38.46-10.5c12.29,0,23.29,2.49,32.7,7.39a65.56,65.56,0,0,1,15,10.63V1942a4,4,0,0,1,4-4h39.93a4,4,0,0,1,4,4v157.86c0,15.09-3.1,28.8-9.21,40.74a69.48,69.48,0,0,1-27.9,28.84C2448.78,2176.38,2433.82,2179.94,2416.59,2179.94Zm-4-201.72a35.7,35.7,0,0,0-32,19c-3.5,6.23-5.28,13.8-5.28,22.49s1.78,16.38,5.3,22.81a37.81,37.81,0,0,0,13.8,14.73,34.91,34.91,0,0,0,18.15,5.09,37.07,37.07,0,0,0,18.64-5,36.28,36.28,0,0,0,13.75-14.27c3.42-6.25,5.16-13.93,5.16-22.81s-1.74-16.57-5.16-22.82a36.12,36.12,0,0,0-13.76-14.25,36.91,36.91,0,0,0-18.57-5Z" transform="translate(-315.65 -496.91)"/>
    <path class="cls-2" d="M2416.59,2178.59c-22.73,0-41.68-5.41-56.33-16.08-14.82-10.8-23.32-25.72-25.28-44.34a2.69,2.69,0,0,1,2.34-3H2377a2.67,2.67,0,0,1,2.59,2c1.9,6.56,5.91,11.65,12.26,15.56s14.36,6,23.62,6c10.73,0,19.52-3.23,26.15-9.58s9.92-16.19,9.92-29.31V2083.2a66.71,66.71,0,0,1-17.09,13.1c-9.33,5.1-20.09,7.68-32,7.68a70.4,70.4,0,0,1-37.64-10.58,73.91,73.91,0,0,1-26.86-29.78c-6.48-12.67-9.77-27.41-9.77-43.82,0-16.2,3.29-30.8,9.78-43.38s15.51-22.53,26.73-29.36a71.44,71.44,0,0,1,37.76-10.3c12.07,0,22.86,2.44,32.08,7.24a62.39,62.39,0,0,1,17,12.72V1942a2.7,2.7,0,0,1,2.7-2.7h39.88a2.7,2.7,0,0,1,2.7,2.7v157.86c0,14.88-3,28.38-9.06,40.13a68.24,68.24,0,0,1-27.37,28.28C2448.32,2175.09,2433.58,2178.59,2416.59,2178.59Zm-4-201.72a37.08,37.08,0,0,0-33.15,19.7c-3.62,6.44-5.45,14.23-5.45,23.15s1.84,16.83,5.47,23.46a39.29,39.29,0,0,0,14.29,15.24,36.31,36.31,0,0,0,18.84,5.28,38.5,38.5,0,0,0,19.31-5.16,37.49,37.49,0,0,0,14.26-14.79c3.53-6.45,5.33-14.34,5.33-23.46s-1.8-17-5.33-23.47A37.49,37.49,0,0,0,2431.9,1982a38.32,38.32,0,0,0-19.27-5.16Z" transform="translate(-315.65 -496.91)"/>
    <path class="cls-2" d="M2416.59,2177.21c-22.44,0-41.12-5.32-55.53-15.82s-22.82-25.17-24.74-43.39a1.42,1.42,0,0,1,.34-1,1.35,1.35,0,0,1,1-.44H2377a1.33,1.33,0,0,1,1.29,1,28.22,28.22,0,0,0,12.85,16.34c6.55,4,14.82,6.17,24.33,6.17,11.09,0,20.21-3.35,27.08-10s10.34-16.79,10.34-30.29V2079.5a63.53,63.53,0,0,1-19.09,15.52c-9.12,5-19.67,7.52-31.34,7.52a69,69,0,0,1-36.92-10.38,72.55,72.55,0,0,1-26.38-29.25c-6.38-12.47-9.62-27-9.62-43.19,0-16,3.24-30.39,9.62-42.77s15.23-22.13,26.24-28.83a70.11,70.11,0,0,1,37.06-10.1c11.85,0,22.43,2.39,31.47,7.09a60.12,60.12,0,0,1,19,15.12v-18.31a1.33,1.33,0,0,1,1.33-1.35h39.9a1.34,1.34,0,0,1,1.35,1.33h0v157.88c0,14.66-3,28-8.92,39.51a66.7,66.7,0,0,1-26.83,27.73C2447.85,2173.8,2433.34,2177.21,2416.59,2177.21Zm-4-201.72a38.42,38.42,0,0,0-34.32,20.38c-3.74,6.65-5.63,14.66-5.63,23.82s1.9,17.27,5.63,24.11a40.65,40.65,0,0,0,14.79,15.75,37.58,37.58,0,0,0,19.53,5.47,39.63,39.63,0,0,0,20-5.34,38.79,38.79,0,0,0,14.77-15.32c3.65-6.65,5.5-14.75,5.5-24.1s-1.85-17.46-5.5-24.11a38.72,38.72,0,0,0-14.77-15.32,39.63,39.63,0,0,0-20-5.31Z" transform="translate(-315.65 -496.91)"/>
    <path class="cls-2" d="M2433.28,1946.3a56.89,56.89,0,0,1,20.95,18V1942h39.88v157.86q0,21.78-8.77,38.9a65,65,0,0,1-26.3,27.16q-17.55,10-42.45,10-33.37,0-54.74-15.56t-24.18-42.44H2377q3.11,10.74,13.44,17.11t25,6.37q17.25,0,28-10.33t10.75-31.26v-24.33a60.22,60.22,0,0,1-21.09,18.39q-13.44,7.35-30.69,7.35A67.25,67.25,0,0,1,2366.2,2091q-16.41-10.18-25.89-28.71t-9.47-42.58q0-23.78,9.47-42.16t25.75-28.29a68.55,68.55,0,0,1,36.35-9.9Q2420,1939.36,2433.28,1946.3Zm15.29,49.23a40,40,0,0,0-15.29-15.85,40.8,40.8,0,0,0-20.65-5.51,39.76,39.76,0,0,0-35.5,21.07q-5.8,10.35-5.8,24.48t5.8,24.76a41.63,41.63,0,0,0,15.28,16.26,38.77,38.77,0,0,0,20.22,5.66,40.78,40.78,0,0,0,20.65-5.52,39.89,39.89,0,0,0,15.29-15.84q5.64-10.32,5.66-24.76T2448.57,1995.53Z" transform="translate(-315.65 -496.91)"/>
    <path class="cls-2" d="M2532.87,2102.7a4.07,4.07,0,0,1-4-4V1941.92a4.05,4.05,0,0,1,4-4h39.61a4.06,4.06,0,0,1,4.05,4v156.73a4.07,4.07,0,0,1-4.05,4ZM2553,1927.3a28.26,28.26,0,0,1-20.2-7.78,27.3,27.3,0,0,1-.36-38.59l.36-.36c5.38-5.16,12.18-7.77,20.2-7.77s14.82,2.61,20.21,7.77a27.28,27.28,0,0,1,.39,38.56h0l-.39.39C2567.78,1924.68,2561,1927.3,2553,1927.3Z" transform="translate(-315.65 -496.91)"/>
    <path class="cls-2" d="M2532.87,2101.35a2.7,2.7,0,0,1-2.7-2.7V1941.92a2.7,2.7,0,0,1,2.7-2.7h39.61a2.7,2.7,0,0,1,2.7,2.7v156.73a2.7,2.7,0,0,1-2.7,2.7ZM2553,1926c-7.67,0-14.15-2.49-19.26-7.4a25.94,25.94,0,0,1-.35-36.66l.35-.35c5.12-4.92,11.6-7.4,19.26-7.4s14.15,2.48,19.28,7.39a25.93,25.93,0,0,1,.34,36.66v0l-.33.33C2567.11,1923.46,2560.61,1926,2553,1926Z" transform="translate(-315.65 -496.91)"/>
    <path class="cls-2" d="M2532.87,2100a1.34,1.34,0,0,1-1.35-1.33h0V1941.92a1.34,1.34,0,0,1,1.33-1.35h39.63a1.34,1.34,0,0,1,1.35,1.33h0v156.75a1.34,1.34,0,0,1-1.33,1.35h-39.63ZM2553,1924.6a25.57,25.57,0,0,1-18.33-7,24.58,24.58,0,0,1-.27-34.74l.27-.27a27.43,27.43,0,0,1,36.67,0,24.59,24.59,0,0,1,.27,34.74l-.27.27A25.58,25.58,0,0,1,2553,1924.6Z" transform="translate(-315.65 -496.91)"/>
    <path class="cls-2" d="M2535.55,1916.6a23.24,23.24,0,0,1-.25-32.86l.25-.25q6.93-6.63,17.4-6.65t17.41,6.65a23.24,23.24,0,0,1,.25,32.86l-.25.25q-6.93,6.63-17.41,6.65T2535.55,1916.6Zm36.93,25.32v156.73h-39.61V1941.92Z" transform="translate(-315.65 -496.91)"/>
    <path class="cls-2" d="M2721.29,2102.7a4.07,4.07,0,0,1-4.05-4v-86.57c0-11.34-2.77-20.07-8.25-26s-12.84-8.75-22.5-8.75c-9.87,0-17.37,2.87-22.94,8.77s-8.38,14.61-8.38,25.94v86.57a4,4,0,0,1-4,4h-39.7a4,4,0,0,1-4-4V1941.92a4.05,4.05,0,0,1,4-4h39.6a4,4,0,0,1,4.05,3.95v9.37a61.13,61.13,0,0,1,14.45-9.45,67.15,67.15,0,0,1,28.76-6.18c19.71,0,35.91,6.36,48.16,18.9s18.4,30.08,18.4,52.19v92a4,4,0,0,1-4,4h-39.7Z" transform="translate(-315.65 -496.91)"/>
    <path class="cls-2" d="M2721.29,2101.35a2.7,2.7,0,0,1-2.7-2.7v-86.57c0-11.69-2.9-20.73-8.61-26.88s-13.43-9.18-23.49-9.18c-10.26,0-18.08,3-23.93,9.2s-8.74,15.18-8.74,26.86v86.57a2.7,2.7,0,0,1-2.7,2.7h-39.6a2.7,2.7,0,0,1-2.7-2.7V1941.92a2.7,2.7,0,0,1,2.7-2.7h39.6a2.7,2.7,0,0,1,2.7,2.7v12.43A59,59,0,0,1,2670.2,1943a65.69,65.69,0,0,1,28.18-6c19.33,0,35.21,6.22,47.19,18.49s18,29.5,18,51.25v91.95a2.68,2.68,0,0,1-2.66,2.7h0Z" transform="translate(-315.65 -496.91)"/>
    <path class="cls-2" d="M2721.29,2100a1.33,1.33,0,0,1-1.35-1.33v0h0v-86.57c0-12-3-21.39-9-27.8s-14.17-9.61-24.48-9.61c-10.5,0-18.88,3.24-24.91,9.62s-9.11,15.75-9.11,27.79v86.57a1.33,1.33,0,0,1-1.33,1.35h-39.62a1.33,1.33,0,0,1-1.35-1.33h0V1941.92a1.33,1.33,0,0,1,1.33-1.35h39.62a1.33,1.33,0,0,1,1.35,1.33h0v15.82a57,57,0,0,1,18.31-13.49,64.12,64.12,0,0,1,27.6-5.92c19,0,34.51,6.08,46.23,18.08s17.63,28.93,17.63,50.31v92a1.33,1.33,0,0,1-1.33,1.35h-39.59Z" transform="translate(-315.65 -496.91)"/>
    <path class="cls-2" d="M2743.64,1957.34q17.25,17.69,17.25,49.36v92h-39.6v-86.57q0-18.66-9.33-28.72t-25.47-10q-16.41,0-25.89,10t-9.48,28.72v86.57h-39.6V1941.92h39.6v19.52a54.84,54.84,0,0,1,20.23-16,62.79,62.79,0,0,1,27-5.79Q2726.4,1939.67,2743.64,1957.34Z" transform="translate(-315.65 -496.91)"/>
    <path class="cls-2" d="M2867,2105.2c-15.72,0-30-3.55-42.57-10.55a75.08,75.08,0,0,1-29.6-30c-7-12.79-10.53-27.72-10.53-44.37,0-16.83,3.49-31.85,10.38-44.65a73.49,73.49,0,0,1,29.33-29.9c12.44-6.91,26.9-10.42,43-10.42,15.51,0,29.62,3.41,42,10.11a72,72,0,0,1,29.05,28.9c6.82,12.34,10.27,26.66,10.27,42.55a100.22,100.22,0,0,1-1.18,16,4,4,0,0,1-4,3.39h-110c1.41,8.16,4.78,14.73,10,19.56,6.25,5.75,13.78,8.55,23,8.55,13.15,0,22.24-5.46,27.77-16.69a4.06,4.06,0,0,1,3.63-2.26h42.71a4,4,0,0,1,4.07,3.93h0a4.67,4.67,0,0,1-.19,1.28,75.82,75.82,0,0,1-27.48,39.26C2903.23,2100.06,2886.47,2105.2,2867,2105.2Zm31.86-103.72a26.37,26.37,0,0,0-9.32-17.34c-6.38-5.46-14.35-8.23-23.68-8.23-8.86,0-16.08,2.58-22.06,7.89-4.93,4.38-8.32,10.32-10.1,17.68Z" transform="translate(-315.65 -496.91)"/>
    <path class="cls-2" d="M2867,2103.89c-15.49,0-29.59-3.49-41.91-10.38A73.59,73.59,0,0,1,2796,2064c-6.88-12.6-10.37-27.31-10.37-43.73,0-16.61,3.44-31.41,10.22-44a72,72,0,0,1,28.8-29.37c12.23-6.79,26.47-10.24,42.33-10.24,15.28,0,29.18,3.35,41.31,10a70.56,70.56,0,0,1,28.52,28.37c6.71,12.13,10.1,26.23,10.1,41.89a98.54,98.54,0,0,1-1.16,15.73,2.71,2.71,0,0,1-2.67,2.26H2831.53c1.27,9.19,4.87,16.55,10.69,21.9,6.52,6,14.34,8.91,23.92,8.91,13.72,0,23.2-5.71,29-17.45a2.68,2.68,0,0,1,2.42-1.5h42.68a2.7,2.7,0,0,1,2.69,2.71,3.32,3.32,0,0,1-.11.76,74.27,74.27,0,0,1-27,38.58C2902.62,2098.81,2886.17,2103.89,2867,2103.89Zm33.36-101a28,28,0,0,0-9.94-19.72c-6.64-5.67-14.9-8.55-24.56-8.55-9.21,0-16.72,2.7-22.95,8.23-5.52,4.9-9.18,11.63-10.9,20Z" transform="translate(-315.65 -496.91)"/>
    <path class="cls-2" d="M2867,2102.54c-15.26,0-29.14-3.43-41.26-10.21a72.34,72.34,0,0,1-28.54-29c-6.77-12.4-10.21-26.89-10.21-43.08,0-16.38,3.39-31,10.07-43.37a70.93,70.93,0,0,1,28.26-28.83c12-6.68,26.06-10.07,41.68-10.07,15,0,28.73,3.29,40.67,9.79a69.4,69.4,0,0,1,28,27.83c6.59,11.93,9.93,25.81,9.93,41.25a97,97,0,0,1-1.14,15.5,1.37,1.37,0,0,1-1.34,1.13H2830c1.12,10.23,4.92,18.38,11.31,24.25,6.68,6.14,15,9.26,24.83,9.26,14.28,0,24.16-5.95,30.19-18.2a1.36,1.36,0,0,1,1.21-.75h42.7a1.34,1.34,0,0,1,1.35,1.31,1.52,1.52,0,0,1-.06.42,73,73,0,0,1-26.52,37.89C2902,2097.55,2885.87,2102.54,2867,2102.54Zm34.81-98.32c-.48-9.1-4-16.53-10.51-22.1-6.89-5.88-15.45-8.87-25.44-8.87-9.42,0-17.45,2.89-23.85,8.58-6.09,5.4-10,12.93-11.62,22.39Z" transform="translate(-315.65 -496.91)"/>
    <path class="cls-2" d="M2943.09,2032.2H2828.51q1.41,17,11.89,26.59t25.74,9.62q22.07,0,31.4-18.95h42.7a71.35,71.35,0,0,1-26,37.2q-19.23,14.57-47.24,14.56-22.65,0-40.6-10a70.64,70.64,0,0,1-28-28.43q-10-18.37-10-42.43,0-24.34,9.91-42.73a69.13,69.13,0,0,1,27.73-28.29q17.82-9.88,41-9.9,22.33,0,40,9.62a67.79,67.79,0,0,1,27.44,27.3q9.75,17.69,9.76,40.6A94.83,94.83,0,0,1,2943.09,2032.2Zm-39.86-26.63q-.27-15.28-11-24.47t-26.3-9.19q-14.71,0-24.76,8.91t-12.3,24.75Z" transform="translate(-315.65 -496.91)"/>
    <path class="cls-2" d="M3041.54,2105.2c-15.73,0-30.05-3.55-42.57-10.55a74.87,74.87,0,0,1-29.59-30c-7-12.79-10.53-27.72-10.53-44.37,0-16.83,3.49-31.85,10.38-44.65a73.41,73.41,0,0,1,29.32-29.9c12.44-6.91,26.9-10.42,43-10.42,15.5,0,29.63,3.41,42,10.11a72,72,0,0,1,29,28.9c6.81,12.34,10.26,26.66,10.26,42.55a99.07,99.07,0,0,1-1.18,16,4,4,0,0,1-4,3.39h-110c1.41,8.16,4.78,14.73,10,19.56,6.26,5.75,13.79,8.55,23,8.55,13.15,0,22.23-5.46,27.78-16.69a4,4,0,0,1,3.63-2.26h42.71a4,4,0,0,1,4.07,3.93h0a4.32,4.32,0,0,1-.19,1.28,75.73,75.73,0,0,1-27.46,39.26C3077.75,2100.06,3061,2105.2,3041.54,2105.2Zm31.87-103.72a26.37,26.37,0,0,0-9.32-17.34c-6.39-5.46-14.36-8.23-23.69-8.23-8.86,0-16.08,2.58-22.06,7.89-4.93,4.38-8.32,10.32-10.1,17.68Z" transform="translate(-315.65 -496.91)"/>
    <path class="cls-2" d="M3041.54,2103.89c-15.49,0-29.59-3.49-41.92-10.38a73.54,73.54,0,0,1-29-29.49c-6.89-12.6-10.38-27.31-10.38-43.73,0-16.61,3.44-31.41,10.23-44a72,72,0,0,1,28.79-29.37c12.23-6.79,26.47-10.24,42.33-10.24,15.28,0,29.19,3.35,41.32,10a70.68,70.68,0,0,1,28.52,28.37c6.7,12.13,10.09,26.23,10.09,41.89a97.39,97.39,0,0,1-1.16,15.73,2.71,2.71,0,0,1-2.67,2.26H3006.08c1.27,9.19,4.86,16.55,10.69,21.9,6.52,6,14.34,8.91,23.92,8.91,13.72,0,23.19-5.71,29-17.45a2.67,2.67,0,0,1,2.42-1.5h42.71a2.7,2.7,0,0,1,2.7,2.7,2.87,2.87,0,0,1-.11.77,74.31,74.31,0,0,1-27,38.58C3077.18,2098.81,3060.72,2103.89,3041.54,2103.89Zm33.37-101a28.08,28.08,0,0,0-9.94-19.72c-6.65-5.67-14.91-8.55-24.57-8.55-9.21,0-16.72,2.7-23,8.23-5.51,4.9-9.17,11.63-10.89,20Z" transform="translate(-315.65 -496.91)"/>
    <path class="cls-2" d="M3041.54,2102.54c-15.26,0-29.14-3.43-41.26-10.21a72.32,72.32,0,0,1-28.53-29c-6.77-12.4-10.21-26.89-10.21-43.08,0-16.38,3.39-31,10.07-43.37a70.9,70.9,0,0,1,28.25-28.83c12-6.68,26.06-10.07,41.68-10.07,15,0,28.74,3.29,40.68,9.79a69.4,69.4,0,0,1,28,27.83c6.58,11.93,9.92,25.81,9.92,41.25a94.66,94.66,0,0,1-1.15,15.5,1.34,1.34,0,0,1-1.33,1.13H3004.55c1.12,10.23,4.92,18.38,11.31,24.25,6.68,6.14,15,9.26,24.83,9.26,14.28,0,24.16-5.95,30.2-18.2a1.34,1.34,0,0,1,1.21-.75h42.71a1.34,1.34,0,0,1,1.36,1.32h0a1.4,1.4,0,0,1-.06.41,73,73,0,0,1-26.51,37.89C3076.6,2097.55,3060.42,2102.54,3041.54,2102.54Zm34.82-98.32c-.48-9.1-4-16.53-10.51-22.1-6.9-5.88-15.46-8.87-25.45-8.87-9.42,0-17.45,2.89-23.85,8.58-6.09,5.4-10,12.93-11.62,22.39Z" transform="translate(-315.65 -496.91)"/>
    <path class="cls-2" d="M3117.64,2032.2H3003.06q1.41,17,11.89,26.59t25.74,9.62q22.08,0,31.41-18.95h42.72a71.39,71.39,0,0,1-26,37.2q-19.29,14.53-47.28,14.54-22.64,0-40.6-10a70.62,70.62,0,0,1-28-28.43q-10-18.37-10-42.43,0-24.35,9.9-42.73a69.25,69.25,0,0,1,27.73-28.29q17.82-9.88,41-9.9,22.35,0,40,9.62a67.61,67.61,0,0,1,27.44,27.3q9.77,17.69,9.76,40.59A93,93,0,0,1,3117.64,2032.2Zm-39.88-26.6q-.28-15.28-11-24.47t-26.32-9.19q-14.7,0-24.75,8.91t-12.3,24.75Z" transform="translate(-315.65 -496.91)"/>
    <path class="cls-2" d="M3147.62,2102.7a4,4,0,0,1-4-4V1941.92a4.05,4.05,0,0,1,4-4h39.63a4.06,4.06,0,0,1,4.06,4v12.32a58.21,58.21,0,0,1,44-18.61,4.05,4.05,0,0,1,4,4v41.56a4,4,0,0,1-4,4h-10.45c-11.33,0-19.87,2.59-25.39,7.69s-8.18,14.3-8.18,27.59v78.08a4.08,4.08,0,0,1-4.05,4Z" transform="translate(-315.65 -496.91)"/>
    <path class="cls-2" d="M3147.62,2101.35a2.68,2.68,0,0,1-2.69-2.67v0h0V1941.92a2.68,2.68,0,0,1,2.66-2.7h39.66a2.7,2.7,0,0,1,2.71,2.7v15.9a56.87,56.87,0,0,1,45.39-20.86,2.7,2.7,0,0,1,2.7,2.7v41.58a2.7,2.7,0,0,1-2.7,2.7h-10.49c-11.68,0-20.53,2.71-26.31,8s-8.61,14.9-8.61,28.57v78.09a2.7,2.7,0,0,1-2.71,2.7Z" transform="translate(-315.65 -496.91)"/>
    <path class="cls-2" d="M3147.62,2100a1.34,1.34,0,0,1-1.34-1.34h0V1941.92a1.34,1.34,0,0,1,1.33-1.35h39.64a1.35,1.35,0,0,1,1.36,1.33h0v19.88a55.65,55.65,0,0,1,46.74-23.47,1.34,1.34,0,0,1,1.35,1.33h0v41.6a1.34,1.34,0,0,1-1.33,1.35h-10.51c-12,0-21.19,2.83-27.23,8.41s-9,15.5-9,29.57v78.08a1.34,1.34,0,0,1-1.33,1.35h-39.68Z" transform="translate(-315.65 -496.91)"/>
    <path class="cls-2" d="M3207.18,1946.73a55.53,55.53,0,0,1,28.15-7.07v41.58h-10.47q-18.66,0-28.14,8.77t-9.48,30.56v78.08h-39.61V1941.92h39.62v24.33A55.72,55.72,0,0,1,3207.18,1946.73Z" transform="translate(-315.65 -496.91)"/>
    <path class="cls-2" d="M3261.92,2102.7a4.06,4.06,0,0,1-4-4V1941.92a4.05,4.05,0,0,1,4-4h39.6a4,4,0,0,1,4,4v156.73a4,4,0,0,1-3.95,4h-39.65ZM3282,1927.3c-8,0-14.83-2.62-20.21-7.78a27.28,27.28,0,0,1-.38-38.57l.38-.38c5.38-5.16,12.17-7.77,20.2-7.77s14.81,2.61,20.19,7.77a27.27,27.27,0,0,1,.38,38.57c-.13.13-.25.26-.38.38C3296.83,1924.68,3290,1927.3,3282,1927.3Z" transform="translate(-315.65 -496.91)"/>
    <path class="cls-2" d="M3261.92,2101.35a2.7,2.7,0,0,1-2.7-2.7V1941.92a2.7,2.7,0,0,1,2.7-2.7h39.6a2.7,2.7,0,0,1,2.7,2.7v156.73a2.7,2.7,0,0,1-2.7,2.7ZM3282,1926c-7.67,0-14.15-2.49-19.27-7.4a25.92,25.92,0,0,1-.34-36.66v0l.33-.33c5.12-4.91,11.6-7.39,19.27-7.39s14.13,2.48,19.26,7.39a25.92,25.92,0,0,1,.35,36.66l0,0-.33.33C3296.15,1923.46,3289.67,1926,3282,1926Z" transform="translate(-315.65 -496.91)"/>
    <path class="cls-2" d="M3261.92,2100a1.34,1.34,0,0,1-1.35-1.33h0V1941.92a1.33,1.33,0,0,1,1.33-1.35h39.62a1.33,1.33,0,0,1,1.35,1.33h0v156.75a1.33,1.33,0,0,1-1.33,1.35h-39.62ZM3282,1924.6a25.58,25.58,0,0,1-18.34-7,24.6,24.6,0,0,1-.24-34.77l.24-.24a27.41,27.41,0,0,1,36.67,0,24.6,24.6,0,0,1,.24,34.77l-.24.24A25.54,25.54,0,0,1,3282,1924.6Z" transform="translate(-315.65 -496.91)"/>
    <path class="cls-2" d="M3264.61,1916.6a23.24,23.24,0,0,1-.25-32.86l.25-.25q6.93-6.63,17.4-6.65t17.39,6.65a23.23,23.23,0,0,1,.25,32.86l-.25.25q-6.93,6.63-17.39,6.65A24.12,24.12,0,0,1,3264.61,1916.6Zm36.91,25.32v156.73h-39.6V1941.92Z" transform="translate(-315.65 -496.91)"/>
    <path class="cls-2" d="M3450.34,2102.7a4,4,0,0,1-4-4v-86.57c0-11.34-2.77-20.07-8.25-26s-12.84-8.75-22.5-8.75c-9.86,0-17.37,2.87-22.94,8.77s-8.37,14.61-8.37,25.94v86.57a4.07,4.07,0,0,1-4.05,4h-39.66a4.07,4.07,0,0,1-4.05-4V1941.92a4,4,0,0,1,4.05-4h39.61a4,4,0,0,1,4.05,4v9.32a60.93,60.93,0,0,1,14.45-9.45,66.8,66.8,0,0,1,28.74-6.18c19.72,0,35.92,6.36,48.17,18.9s18.41,30.08,18.41,52.19v92a4.06,4.06,0,0,1-4,4Z" transform="translate(-315.65 -496.91)"/>
    <path class="cls-2" d="M3450.34,2101.35a2.7,2.7,0,0,1-2.7-2.7v-86.57c0-11.69-2.89-20.73-8.61-26.88s-13.44-9.18-23.49-9.18c-10.26,0-18.08,3-23.92,9.2s-8.74,15.18-8.74,26.86v86.57a2.7,2.7,0,0,1-2.7,2.7h-39.61a2.7,2.7,0,0,1-2.7-2.7V1941.92a2.7,2.7,0,0,1,2.7-2.7h39.61a2.7,2.7,0,0,1,2.7,2.7v12.42a58.94,58.94,0,0,1,16.37-11.33,65.68,65.68,0,0,1,28.17-6c19.35,0,35.22,6.22,47.2,18.49s18,29.5,18,51.25v91.95a2.7,2.7,0,0,1-2.7,2.7Z" transform="translate(-315.65 -496.91)"/>
    <path class="cls-2" d="M3450.34,2100a1.33,1.33,0,0,1-1.35-1.33v0h0v-86.57c0-12-3-21.39-9-27.8s-14.18-9.61-24.48-9.61c-10.5,0-18.88,3.24-24.9,9.62s-9.11,15.75-9.11,27.79v86.57a1.33,1.33,0,0,1-1.33,1.35h-39.6a1.33,1.33,0,0,1-1.35-1.33v0h0V1941.92a1.33,1.33,0,0,1,1.33-1.35h39.63a1.33,1.33,0,0,1,1.35,1.33v0h0v15.8a57,57,0,0,1,18.3-13.49,64.41,64.41,0,0,1,27.59-5.92c19,0,34.52,6.08,46.24,18.08s17.64,28.93,17.64,50.31v92A1.33,1.33,0,0,1,3490,2100h-39.63Z" transform="translate(-315.65 -496.91)"/>
    <path class="cls-2" d="M3472.69,1957.34q17.25,17.69,17.26,49.36v92h-39.61v-86.57q0-18.66-9.34-28.72t-25.46-10q-16.41,0-25.89,10t-9.47,28.72v86.57h-39.61V1941.92h39.61v19.52a54.73,54.73,0,0,1,20.22-16,62.78,62.78,0,0,1,27-5.79Q3455.45,1939.67,3472.69,1957.34Z" transform="translate(-315.65 -496.91)"/>
    <path class="cls-2" d="M3603.11,2179.94c-23,0-42.25-5.5-57.13-16.34-15.14-11-23.83-26.27-25.83-45.29a4.06,4.06,0,0,1,3.61-4.45h39.71a4.1,4.1,0,0,1,3.9,2.92c1.8,6.23,5.62,11.06,11.67,14.79s13.91,5.77,22.91,5.77c10.37,0,18.85-3.1,25.2-9.2s9.51-15.6,9.51-28.34v-13.36a70.33,70.33,0,0,1-15.09,11c-9.52,5.21-20.5,7.85-32.63,7.85a71.69,71.69,0,0,1-38.36-10.79c-11.52-7.15-20.72-17.35-27.35-30.31s-9.92-27.81-9.92-44.43c0-16.42,3.34-31.23,9.93-44s15.79-22.93,27.23-29.89a72.82,72.82,0,0,1,38.47-10.5c12.29,0,23.3,2.49,32.7,7.39a65.72,65.72,0,0,1,15,10.63V1942a4.05,4.05,0,0,1,4-4h39.88a4,4,0,0,1,4.05,4v157.91c0,15.09-3.1,28.8-9.21,40.74a69.48,69.48,0,0,1-27.9,28.84C3635.29,2176.38,3620.34,2179.94,3603.11,2179.94Zm-4-201.72a35.69,35.69,0,0,0-32,19c-3.5,6.23-5.29,13.8-5.29,22.49s1.79,16.38,5.31,22.81a37.81,37.81,0,0,0,13.8,14.73,34.91,34.91,0,0,0,18.15,5.09,37.09,37.09,0,0,0,18.64-5,36.19,36.19,0,0,0,13.74-14.27c3.42-6.25,5.16-13.93,5.16-22.81s-1.74-16.57-5.16-22.82a36.23,36.23,0,0,0-13.67-14.25,37.09,37.09,0,0,0-18.64-5Z" transform="translate(-315.65 -496.91)"/>
    <path class="cls-2" d="M3603.11,2178.59c-22.73,0-41.69-5.41-56.33-16.08-14.82-10.79-23.33-25.72-25.29-44.34a2.69,2.69,0,0,1,2.35-3h39.66a2.69,2.69,0,0,1,2.6,2c1.9,6.56,5.91,11.65,12.26,15.56s14.37,6,23.62,6c10.73,0,19.52-3.23,26.14-9.58s9.92-16.18,9.92-29.31V2083.2a66.83,66.83,0,0,1-17.08,13.1c-9.32,5.1-20.09,7.68-32,7.68a70.38,70.38,0,0,1-37.64-10.58,73.93,73.93,0,0,1-26.87-29.78c-6.48-12.67-9.77-27.41-9.77-43.82,0-16.2,3.29-30.8,9.78-43.38s15.51-22.53,26.73-29.36a71.5,71.5,0,0,1,37.77-10.3c12.07,0,22.87,2.44,32.08,7.24a62.5,62.5,0,0,1,17,12.72V1942a2.7,2.7,0,0,1,2.7-2.7h39.88a2.7,2.7,0,0,1,2.7,2.7v157.86c0,14.88-3.05,28.38-9.06,40.13a68.07,68.07,0,0,1-27.37,28.21C3634.83,2175.09,3620.1,2178.59,3603.11,2178.59Zm-4-201.72a37,37,0,0,0-33.13,19.69c-3.63,6.44-5.45,14.22-5.45,23.14s1.84,16.84,5.47,23.47a39.14,39.14,0,0,0,14.29,15.24,36.25,36.25,0,0,0,18.84,5.28,38.5,38.5,0,0,0,19.31-5.16,37.49,37.49,0,0,0,14.25-14.8c3.54-6.45,5.33-14.34,5.33-23.45s-1.79-17-5.33-23.47a37.46,37.46,0,0,0-14.25-14.79,38.31,38.31,0,0,0-19.29-5.15Z" transform="translate(-315.65 -496.91)"/>
    <path class="cls-2" d="M3603.11,2177.21c-22.44,0-41.13-5.32-55.54-15.82s-22.82-25.17-24.73-43.39a1.32,1.32,0,0,1,1.2-1.43h39.46a1.36,1.36,0,0,1,1.3,1,28.16,28.16,0,0,0,12.84,16.34c6.55,4,14.82,6.17,24.33,6.17,11.09,0,20.2-3.35,27.07-10s10.34-16.78,10.34-30.29V2079.5A63.49,63.49,0,0,1,3620.3,2095c-9.12,5-19.67,7.52-31.34,7.52a69,69,0,0,1-36.93-10.38,72.55,72.55,0,0,1-26.38-29.25c-6.38-12.48-9.62-27-9.62-43.19,0-16,3.24-30.38,9.63-42.77s15.22-22.12,26.24-28.83a70.12,70.12,0,0,1,37-10.1c11.85,0,22.44,2.39,31.46,7.09a59.9,59.9,0,0,1,19,15.12v-18.31a1.34,1.34,0,0,1,1.33-1.35h39.9a1.33,1.33,0,0,1,1.35,1.33h0v157.88c0,14.66-3,28-8.91,39.51A66.79,66.79,0,0,1,3646.2,2167C3634.37,2173.8,3619.86,2177.21,3603.11,2177.21Zm-4-201.72a38.41,38.41,0,0,0-34.32,20.38c-3.75,6.65-5.64,14.66-5.64,23.82s1.9,17.27,5.64,24.11a40.44,40.44,0,0,0,14.79,15.75,37.56,37.56,0,0,0,19.53,5.47,39.69,39.69,0,0,0,20-5.34,38.86,38.86,0,0,0,14.77-15.32c3.64-6.65,5.49-14.76,5.49-24.1s-1.85-17.46-5.49-24.11a38.79,38.79,0,0,0-14.77-15.32,39.66,39.66,0,0,0-20-5.31Z" transform="translate(-315.65 -496.91)"/>
    <path class="cls-2" d="M3619.8,1946.3a56.94,56.94,0,0,1,20.94,18V1942h39.88v157.86q0,21.78-8.76,38.9a65.11,65.11,0,0,1-26.31,27.16q-17.55,10-42.44,10-33.37,0-54.75-15.56t-24.18-42.44h39.32q3.12,10.74,13.44,17.11t25,6.37q17.25,0,28-10.33t10.75-31.26v-24.33a60.19,60.19,0,0,1-21.08,18.39q-13.44,7.35-30.69,7.35A67.26,67.26,0,0,1,3552.7,2091q-16.41-10.18-25.89-28.71t-9.47-42.58q0-23.78,9.47-42.16t25.75-28.29a68.58,68.58,0,0,1,36.36-9.9Q3606.52,1939.36,3619.8,1946.3Zm15.28,49.23a40,40,0,0,0-15.28-15.85,40.8,40.8,0,0,0-20.65-5.51,39.73,39.73,0,0,0-35.5,21.07q-5.82,10.35-5.81,24.48t5.81,24.76a41.56,41.56,0,0,0,15.28,16.26,38.77,38.77,0,0,0,20.22,5.66,40.81,40.81,0,0,0,20.65-5.52,39.87,39.87,0,0,0,15.28-15.84q5.65-10.32,5.66-24.76T3635.08,1995.53Z" transform="translate(-315.65 -496.91)"/>
  </g>
</svg>
